<?xml version="1.0" encoding="UTF-8" standalone="no"?>
<svg
   xmlns:osb="http://www.openswatchbook.org/uri/2009/osb"
   xmlns:dc="http://purl.org/dc/elements/1.1/"
   xmlns:cc="http://creativecommons.org/ns#"
   xmlns:rdf="http://www.w3.org/1999/02/22-rdf-syntax-ns#"
   xmlns:svg="http://www.w3.org/2000/svg"
   xmlns="http://www.w3.org/2000/svg"
   xmlns:xlink="http://www.w3.org/1999/xlink"
   xmlns:sodipodi="http://sodipodi.sourceforge.net/DTD/sodipodi-0.dtd"
   xmlns:inkscape="http://www.inkscape.org/namespaces/inkscape"
   id="svg52"
   stroke-miterlimit="1.5"
   version="1.1"
   viewBox="0 0 240 168"
   xml:space="preserve"
   sodipodi:docname="item-template.svg"
   inkscape:version="0.92.3 (2405546, 2018-03-11)"
   width="2.5in"
   height="1.75in"
   style="clip-rule:evenodd;fill-rule:evenodd;stroke-linecap:round;stroke-linejoin:round;stroke-miterlimit:1.5"><sodipodi:namedview
   pagecolor="#ffffff"
   bordercolor="#666666"
   borderopacity="1"
   objecttolerance="10"
   gridtolerance="10"
   guidetolerance="10"
   inkscape:pageopacity="0"
   inkscape:pageshadow="2"
   inkscape:window-width="1920"
   inkscape:window-height="1017"
   id="namedview78"
   showgrid="false"
   inkscape:zoom="1.8987186"
   inkscape:cx="28.020698"
   inkscape:cy="-8.604548"
   inkscape:window-x="-8"
   inkscape:window-y="-8"
   inkscape:window-maximized="1"
   inkscape:current-layer="svg52"
   units="in"
   inkscape:snap-object-midpoints="true" /><metadata
   id="metadata58"><rdf:RDF><cc:Work
       rdf:about=""><dc:format>image/svg+xml</dc:format><dc:type
         rdf:resource="http://purl.org/dc/dcmitype/StillImage" /><dc:title></dc:title></cc:Work></rdf:RDF></metadata><defs
   id="defs56"><linearGradient
     id="charters-blue"
     osb:paint="solid"><stop
       id="stop882"
       stop-color="#0019fe"
       offset="0" /></linearGradient><linearGradient
     id="charters-orange"
     osb:paint="solid"><stop
       id="stop876"
       stop-color="#fe7900"
       offset="0" /></linearGradient><linearGradient
     id="charters-violet"
     osb:paint="solid"><stop
       id="stop870"
       stop-color="#8900c8"
       offset="0" /></linearGradient><linearGradient
     id="charters-green"
     osb:paint="solid"><stop
       id="stop864"
       stop-color="#00ae06"
       offset="0" /></linearGradient><linearGradient
     id="charters-yellow"
     osb:paint="solid"><stop
       id="stop858"
       stop-color="#ece700"
       offset="0" /></linearGradient><linearGradient
     id="charters-red"
     osb:paint="solid"><stop
       id="stop852"
       stop-color="#fc0000"
       offset="0" /></linearGradient><clipPath
     id="clipPath2344"><g
       id="g2348"
       transform="matrix(1,0,0,1.4784,-1407.7,-1072.4)"
       style="fill:none;stroke:#0029f1">
        <path
   id="path2346"
   d="M 691,63.599 C 691,51.28 676.214,41.278 658,41.278 H 74.27 c -18.213,0 -33,10.002 -33,22.321 v 44.642 c 0,12.319 14.787,22.32 33,22.32 H 658 c 18.214,0 33,-10.001 33,-22.32 z"
   inkscape:connector-curvature="0"
   style="fill:none;stroke:#0029f1;stroke-width:2.50999999px" />
    </g></clipPath><linearGradient
     id="linearGradient2388"
     x1="39.693001"
     x2="692.59003"
     y1="85.919998"
     y2="85.919998"
     gradientUnits="userSpaceOnUse"
     xlink:href="#charters-red" /><clipPath
     id="clipPath2414"><g
       id="g2418"
       transform="matrix(1.8977,0,0,2.5382,-332.92,-340.44)">
        <path
   id="path2416"
   d="m 517.05,304.62 c 15.025,-13.002 22.935,-27.752 22.935,-42.766 0,-15.014 -7.91,-29.764 -22.935,-42.767 h -296.5 c -15.024,13.003 -22.934,27.753 -22.934,42.767 0,15.014 7.91,29.764 22.934,42.766 z"
   inkscape:connector-curvature="0"
   style="fill:#ffffff;stroke:#000000;stroke-width:1.40999997px" />
    </g></clipPath><linearGradient
     id="linearGradient2428"
     x1="520.89001"
     x2="680.01001"
     y1="226.16"
     y2="226.16"
     gradientUnits="userSpaceOnUse"
     xlink:href="#charters-red" /><linearGradient
     id="linearGradient2477"
     x1="520.67999"
     x2="680.21997"
     y1="226.16"
     y2="226.16"
     gradientUnits="userSpaceOnUse"
     xlink:href="#charters-red" /><linearGradient
     id="linearGradient908"
     x2="732.28003"
     y1="259.84"
     y2="259.84"
     gradientUnits="userSpaceOnUse"
     xlink:href="#charters-red" /><linearGradient
     inkscape:collect="always"
     xlink:href="#charters-red"
     id="linearGradient884"
     gradientUnits="userSpaceOnUse"
     y1="259.84"
     x2="732.28003"
     y2="259.84" /><linearGradient
     inkscape:collect="always"
     xlink:href="#charters-red"
     id="linearGradient886"
     gradientUnits="userSpaceOnUse"
     y1="259.84"
     x2="732.28003"
     y2="259.84" /><linearGradient
     inkscape:collect="always"
     xlink:href="#charters-red"
     id="linearGradient888"
     gradientUnits="userSpaceOnUse"
     x1="520.89001"
     y1="226.16"
     x2="680.01001"
     y2="226.16" /><linearGradient
     inkscape:collect="always"
     xlink:href="#charters-red"
     id="linearGradient892"
     gradientUnits="userSpaceOnUse"
     x1="520.89001"
     y1="226.16"
     x2="680.01001"
     y2="226.16" /><linearGradient
     inkscape:collect="always"
     xlink:href="#charters-red"
     id="linearGradient894"
     gradientUnits="userSpaceOnUse"
     x1="520.89001"
     y1="226.16"
     x2="680.01001"
     y2="226.16" /><linearGradient
     inkscape:collect="always"
     xlink:href="#charters-red"
     id="linearGradient896"
     gradientUnits="userSpaceOnUse"
     x1="520.89001"
     y1="226.16"
     x2="680.01001"
     y2="226.16" /><linearGradient
     inkscape:collect="always"
     xlink:href="#charters-red"
     id="linearGradient898"
     gradientUnits="userSpaceOnUse"
     x1="520.89001"
     y1="226.16"
     x2="680.01001"
     y2="226.16" /><linearGradient
     inkscape:collect="always"
     xlink:href="#charters-red"
     id="linearGradient900"
     gradientUnits="userSpaceOnUse"
     x1="520.67999"
     y1="226.16"
     x2="680.21997"
     y2="226.16" /><linearGradient
     inkscape:collect="always"
     xlink:href="#charters-red"
     id="linearGradient902"
     gradientUnits="userSpaceOnUse"
     x1="520.67999"
     y1="226.16"
     x2="680.21997"
     y2="226.16" /><linearGradient
     inkscape:collect="always"
     xlink:href="#charters-red"
     id="linearGradient904"
     gradientUnits="userSpaceOnUse"
     x1="39.693001"
     y1="85.919998"
     x2="692.59003"
     y2="85.919998" /><linearGradient
     inkscape:collect="always"
     xlink:href="#charters-red"
     id="linearGradient906"
     gradientUnits="userSpaceOnUse"
     x1="39.693001"
     y1="85.919998"
     x2="692.59003"
     y2="85.919998" /><linearGradient
     inkscape:collect="always"
     xlink:href="#charters-red"
     id="linearGradient928"
     gradientUnits="userSpaceOnUse"
     y1="259.84"
     x2="732.28003"
     y2="259.84" /><linearGradient
     inkscape:collect="always"
     xlink:href="#charters-red"
     id="linearGradient930"
     gradientUnits="userSpaceOnUse"
     x1="520.89001"
     y1="226.16"
     x2="680.01001"
     y2="226.16" /><linearGradient
     inkscape:collect="always"
     xlink:href="#charters-red"
     id="linearGradient932"
     gradientUnits="userSpaceOnUse"
     x1="520.89001"
     y1="226.16"
     x2="680.01001"
     y2="226.16" /><linearGradient
     inkscape:collect="always"
     xlink:href="#charters-red"
     id="linearGradient934"
     gradientUnits="userSpaceOnUse"
     x1="520.89001"
     y1="226.16"
     x2="680.01001"
     y2="226.16" /><linearGradient
     inkscape:collect="always"
     xlink:href="#charters-red"
     id="linearGradient936"
     gradientUnits="userSpaceOnUse"
     x1="520.67999"
     y1="226.16"
     x2="680.21997"
     y2="226.16" /><linearGradient
     inkscape:collect="always"
     xlink:href="#charters-red"
     id="linearGradient938"
     gradientUnits="userSpaceOnUse"
     x1="39.693001"
     y1="85.919998"
     x2="692.59003"
     y2="85.919998" /><linearGradient
     inkscape:collect="always"
     xlink:href="#charters-red"
     id="linearGradient976"
     gradientUnits="userSpaceOnUse"
     y1="259.84"
     x2="732.28003"
     y2="259.84" /><linearGradient
     inkscape:collect="always"
     xlink:href="#charters-red"
     id="linearGradient978"
     gradientUnits="userSpaceOnUse"
     x1="520.89001"
     y1="226.16"
     x2="680.01001"
     y2="226.16" /><linearGradient
     inkscape:collect="always"
     xlink:href="#charters-red"
     id="linearGradient980"
     gradientUnits="userSpaceOnUse"
     x1="520.89001"
     y1="226.16"
     x2="680.01001"
     y2="226.16" /><linearGradient
     inkscape:collect="always"
     xlink:href="#charters-red"
     id="linearGradient982"
     gradientUnits="userSpaceOnUse"
     x1="520.89001"
     y1="226.16"
     x2="680.01001"
     y2="226.16" /><linearGradient
     inkscape:collect="always"
     xlink:href="#charters-red"
     id="linearGradient984"
     gradientUnits="userSpaceOnUse"
     x1="520.67999"
     y1="226.16"
     x2="680.21997"
     y2="226.16" /><linearGradient
     inkscape:collect="always"
     xlink:href="#charters-red"
     id="linearGradient986"
     gradientUnits="userSpaceOnUse"
     x1="39.693001"
     y1="85.919998"
     x2="692.59003"
     y2="85.919998" /><linearGradient
     inkscape:collect="always"
     xlink:href="#charters-red"
     id="linearGradient1288"
     gradientUnits="userSpaceOnUse"
     x1="39.693001"
     y1="85.919998"
     x2="692.59003"
     y2="85.919998" /><linearGradient
     inkscape:collect="always"
     xlink:href="#charters-red"
     id="linearGradient1290"
     gradientUnits="userSpaceOnUse"
     x1="520.67999"
     y1="226.16"
     x2="680.21997"
     y2="226.16" /><linearGradient
     inkscape:collect="always"
     xlink:href="#charters-red"
     id="linearGradient1292"
     gradientUnits="userSpaceOnUse"
     x1="520.89001"
     y1="226.16"
     x2="680.01001"
     y2="226.16" /><linearGradient
     inkscape:collect="always"
     xlink:href="#charters-red"
     id="linearGradient1294"
     gradientUnits="userSpaceOnUse"
     x1="520.89001"
     y1="226.16"
     x2="680.01001"
     y2="226.16" /><linearGradient
     inkscape:collect="always"
     xlink:href="#charters-red"
     id="linearGradient1296"
     gradientUnits="userSpaceOnUse"
     x1="520.89001"
     y1="226.16"
     x2="680.01001"
     y2="226.16" /><linearGradient
     inkscape:collect="always"
     xlink:href="#charters-red"
     id="linearGradient1298"
     gradientUnits="userSpaceOnUse"
     y1="259.84"
     x2="732.28003"
     y2="259.84" /></defs>
    <path
   id="path2"
   d="M 240,7.9472729 C 240,3.5611188 236.38992,0 231.94285,0 H 8.0571588 C 3.6103843,0 0,3.5611188 0,7.9472729 V 160.05273 C 0,164.43881 3.6103843,168 8.0571588,168 H 231.94285 C 236.38992,168 240,164.43881 240,160.05273 Z"
   inkscape:connector-curvature="0"
   style="stroke-width:0.32549778" />
    <g
   id="g6"
   transform="matrix(0.31123493,0,0,0.30033159,6.0454901,5.9604529)"
   style="fill:url(#linearGradient1298)">
        <path
   id="path4"
   d="M 732.28,24.584 C 732.28,11.016 721.504,0 708.23,0 H 24.05 C 10.776,0 -0.001,11.016 -0.001,24.584 v 470.52 c 0,13.568 10.777,24.584 24.051,24.584 h 684.18 c 13.274,0 24.05,-11.016 24.05,-24.584 z"
   charters-color="0"
   inkscape:connector-curvature="0"
   style="fill:url(#linearGradient884)" />
    </g>
    <g
   id="g10"
   transform="matrix(0.62195227,0,0,1.0886146,-109.37731,-207.84703)">
        <path
   id="path8"
   d="m 517.05,304.62 c 15.025,-13.002 22.935,-27.752 22.935,-42.766 0,-15.014 -7.91,-29.764 -22.935,-42.767 h -296.5 c -15.024,13.003 -22.934,27.753 -22.934,42.767 0,15.014 7.91,29.764 22.934,42.766 z"
   inkscape:connector-curvature="0" />
    </g>
    <g
   id="g2339"
   transform="matrix(0.3277399,0,0,0.47792364,0.00262193,92.571853)"
   style="fill:#ffffff;stroke:#000000">
        <path
   id="path2337"
   d="M 691,63.599 C 691,51.28 676.214,41.278 658,41.278 H 74.27 c -18.213,0 -33,10.002 -33,22.321 v 44.642 c 0,12.319 14.787,22.32 33,22.32 H 658 c 18.214,0 33,-10.001 33,-22.32 z"
   inkscape:connector-curvature="0"
   style="fill:#ffffff;stroke:#000000;stroke-width:2.50999999px" />
    </g><g
   id="g2342"
   transform="matrix(0.3277399,0,0,0.32327091,461.36225,439.26042)"
   clip-path="url(#clipPath2344)"
   style="opacity:0.75;fill:none"><image
     id="image2334"
     x="-2626.6001"
     y="-2554.3999"
     width="2629.8999"
     height="1753.3"
     preserveAspectRatio="none"
     xlink:href="file:///D:/Projects/Charters-Board-Game/resource/visual/card/art/template/navigation-background.png"
     style="fill:none" /></g><g
   id="g18"
   transform="matrix(0.34468418,0,0,0.55250226,-32.889374,21.769999)">
        <path
   id="path16"
   d="m 678.89,214.32 c 0,-6.539 -8.627,-11.848 -19.254,-11.848 h -118.38 c -10.627,0 -19.255,5.309 -19.255,11.848 v 23.696 c 0,6.539 8.628,11.848 19.255,11.848 h 118.38 c 10.627,0 19.254,-5.309 19.254,-11.848 z"
   inkscape:connector-curvature="0"
   style="fill:#ffffff;stroke:#000000;stroke-width:2.23000002px" />
    </g>
    <g
   id="g22"
   transform="matrix(0.34468418,0,0,0.55250226,-141.04351,21.769999)">
        <path
   id="path20"
   d="m 678.89,214.32 c 0,-6.539 -8.627,-11.848 -19.254,-11.848 h -118.38 c -10.627,0 -19.255,5.309 -19.255,11.848 v 23.696 c 0,6.539 8.628,11.848 19.255,11.848 h 118.38 c 10.627,0 19.254,-5.309 19.254,-11.848 z"
   inkscape:connector-curvature="0"
   style="fill:#ffffff;stroke:#000000;stroke-width:2.23000002px" />
    </g>
    <g
   id="g26"
   transform="matrix(0.3277399,0,0,0.32327091,0.00262193,-0.08776905)"
   style="fill:#ffffff">
        <path
   id="path24"
   d="M 691,63.599 C 691,51.28 680.999,41.278 668.68,41.278 H 63.59 c -12.319,0 -22.321,10.002 -22.321,22.321 v 44.642 c 0,12.319 10.002,22.32 22.321,22.32 h 605.09 c 12.319,0 22.32,-10.001 22.32,-22.32 z"
   inkscape:connector-curvature="0"
   style="fill:#ffffff;stroke:#000000;stroke-width:3.17000008px" />
    </g>
    <g
   id="g30"
   transform="matrix(0.62195227,0,0,0.82052632,-109.37731,-137.64231)">
        <path
   id="path28"
   d="m 517.05,304.62 c 15.025,-13.002 22.935,-27.752 22.935,-42.766 0,-15.014 -7.91,-29.764 -22.935,-42.767 h -296.5 c -15.024,13.003 -22.934,27.753 -22.934,42.767 0,15.014 7.91,29.764 22.934,42.766 z"
   inkscape:connector-curvature="0"
   style="fill:#ffffff;stroke:#000000;stroke-width:1.40999997px" />
    </g>
    <g
   id="g2412"
   transform="matrix(0.3277399,0,0,0.32327091,-0.2637618,-27.588939)"
   clip-path="url(#clipPath2414)"><image
     id="art"
     x="-23.618"
     y="171.77"
     width="825"
     height="619"
     preserveAspectRatio="none"
     xlink:href="file:///D:/Projects/Charters-Board-Game/resource/visual/card/art/template/template-art.png" /></g><g
   id="g34"
   transform="matrix(0.44412007,0,0,0.32233988,-146.67412,42.426076)">
        <path
   id="path32"
   d="m 678.89,214.32 c 0,-6.539 -3.906,-11.848 -8.718,-11.848 h -139.45 c -4.812,0 -8.719,5.309 -8.719,11.848 v 23.696 c 0,6.539 3.907,11.848 8.719,11.848 h 139.45 c 4.812,0 8.718,-5.309 8.718,-11.848 z"
   inkscape:connector-curvature="0"
   style="fill:#ffffff;stroke:#000000;stroke-width:2.66000009px" />
    </g>
    <g
   id="g38"
   transform="matrix(0.34468418,0,0,0.55250226,-86.966419,21.769999)">
        <path
   id="path36"
   d="m 678.89,214.32 c 0,-6.539 -8.627,-11.848 -19.254,-11.848 h -118.38 c -10.627,0 -19.255,5.309 -19.255,11.848 v 23.696 c 0,6.539 8.628,11.848 19.255,11.848 h 118.38 c 10.627,0 19.254,-5.309 19.254,-11.848 z"
   inkscape:connector-curvature="0"
   style="fill:#ffffff;stroke:#000000;stroke-width:2.23000002px" />
    </g>
    <g
   id="g2455"
   transform="matrix(0.34468418,0,0,0.55250226,-86.966419,21.769999)"
   style="opacity:0.5;fill:url(#linearGradient1296);stroke:#000000">
        <path
   id="path2453"
   d="m 678.89,214.32 c 0,-6.539 -8.627,-11.848 -19.254,-11.848 h -118.38 c -10.627,0 -19.255,5.309 -19.255,11.848 v 23.696 c 0,6.539 8.628,11.848 19.255,11.848 h 118.38 c 10.627,0 19.254,-5.309 19.254,-11.848 z"
   charters-color="0"
   inkscape:connector-curvature="0"
   style="fill:url(#linearGradient888);stroke:#000000;stroke-width:2.23000002px" />
    </g><g
   id="g42"
   transform="matrix(2.0585345,0,0,0.94556758,-191.47287,-276.39357)">
        <ellipse
   id="ellipse40"
   cx="151.31"
   cy="447.48001"
   rx="12.418"
   ry="13.846"
   charters-rarity-color="0"
   style="fill:#ffffff;stroke:#000000;stroke-width:0.68000001px" />
    </g>
    <g
   id="g2463"
   transform="matrix(0.34468418,0,0,0.55250226,-141.04351,21.769999)"
   style="opacity:0.5;fill:url(#linearGradient1294);stroke:#000000">
        <path
   id="path2461"
   d="m 678.89,214.32 c 0,-6.539 -8.627,-11.848 -19.254,-11.848 h -118.38 c -10.627,0 -19.255,5.309 -19.255,11.848 v 23.696 c 0,6.539 8.628,11.848 19.255,11.848 h 118.38 c 10.627,0 19.254,-5.309 19.254,-11.848 z"
   charters-color="0"
   inkscape:connector-curvature="0"
   style="fill:url(#linearGradient892);stroke:#000000;stroke-width:2.23000002px" />
    </g><g
   id="g46"
   transform="matrix(2.0585345,0,0,0.94556758,-245.54998,-276.1207)">
        <ellipse
   id="ellipse44"
   cx="151.31"
   cy="447.48001"
   rx="12.418"
   ry="13.846"
   charters-rarity-color="0"
   style="fill:#ffffff;stroke:#000000;stroke-width:0.68000001px" />
    </g>
    <g
   id="g2422"
   transform="matrix(0.34468418,0,0,0.55250226,-32.889374,21.769999)"
   style="opacity:0.5;fill:url(#linearGradient1292);stroke:#000000">
        <path
   id="path2420"
   d="m 678.89,214.32 c 0,-6.539 -8.627,-11.848 -19.254,-11.848 h -118.38 c -10.627,0 -19.255,5.309 -19.255,11.848 v 23.696 c 0,6.539 8.628,11.848 19.255,11.848 h 118.38 c 10.627,0 19.254,-5.309 19.254,-11.848 z"
   charters-color="0"
   inkscape:connector-curvature="0"
   style="fill:url(#linearGradient896);stroke:#000000;stroke-width:2.23000002px" />
    </g><g
   id="g50"
   transform="matrix(2.0585345,0,0,0.94556758,-137.39577,-276.39357)">
        <ellipse
   id="ellipse48"
   cx="151.31"
   cy="447.48001"
   rx="12.418"
   ry="13.846"
   stroke-miterlimit="1.5"
   charters-rarity-color="0"
   style="fill:#ffffff;stroke:#000000;stroke-width:0.68009001;stroke-miterlimit:1.5" />
    </g>
<text
   id="type-0"
   x="65.942497"
   y="152.10736"
   font-size="46.667px"
   letter-spacing="0px"
   text-align="center"
   word-spacing="0px"
   style="font-style:normal;font-variant:normal;font-weight:normal;font-stretch:normal;font-size:16px;line-height:1.25;font-family:Consolas;-inkscape-font-specification:'Consolas, Normal';font-variant-ligatures:normal;font-variant-caps:normal;font-variant-numeric:normal;font-feature-settings:normal;text-align:center;letter-spacing:0px;word-spacing:0px;writing-mode:lr-tb;text-anchor:middle;fill:#000000"
   xml:space="preserve"><tspan
     sodipodi:role="line"
     id="tspan5005"
     x="65.942497"
     y="152.10736">TYPE0</tspan><tspan
     sodipodi:role="line"
     id="tspan5007"
     x="65.942497"
     y="172.10736"></tspan></text>



<text
   id="type-1"
   x="120.17976"
   y="151.85793"
   font-size="46.667px"
   letter-spacing="0px"
   stroke-miterlimit="1.5"
   text-align="center"
   word-spacing="0px"
   style="font-style:normal;font-variant:normal;font-weight:normal;font-stretch:normal;font-size:16px;line-height:1.25;font-family:Consolas;-inkscape-font-specification:'Consolas, Normal';font-variant-ligatures:normal;font-variant-caps:normal;font-variant-numeric:normal;font-feature-settings:normal;text-align:center;letter-spacing:0px;word-spacing:0px;writing-mode:lr-tb;text-anchor:middle;clip-rule:evenodd;fill:#000000;fill-rule:evenodd;stroke-linecap:round;stroke-linejoin:round;stroke-miterlimit:1.5"
   xml:space="preserve"><tspan
     sodipodi:role="line"
     id="tspan5009"
     x="120.17976"
     y="151.85793">TYPE1</tspan></text>



<text
   id="type-2"
   x="174.2139"
   y="151.9048"
   font-size="46.667px"
   letter-spacing="0px"
   stroke-miterlimit="1.5"
   text-align="center"
   word-spacing="0px"
   style="font-style:normal;font-variant:normal;font-weight:normal;font-stretch:normal;font-size:16px;line-height:1.25;font-family:Consolas;-inkscape-font-specification:'Consolas, Normal';font-variant-ligatures:normal;font-variant-caps:normal;font-variant-numeric:normal;font-feature-settings:normal;text-align:center;letter-spacing:0px;word-spacing:0px;writing-mode:lr-tb;text-anchor:middle;clip-rule:evenodd;fill:#000000;fill-rule:evenodd;stroke-linecap:round;stroke-linejoin:round;stroke-miterlimit:1.5"
   xml:space="preserve"><tspan
     sodipodi:role="line"
     id="tspan5003"
     x="174.2139"
     y="151.9048">TYPE2</tspan></text>



<g
   id="g2471"
   transform="matrix(0.44412007,0,0,0.32233988,-146.67412,42.426076)"
   style="opacity:0.5;fill:url(#linearGradient1290);stroke:#000000">
        <path
   id="path2469"
   d="m 678.89,214.32 c 0,-6.539 -3.906,-11.848 -8.718,-11.848 h -139.45 c -4.812,0 -8.719,5.309 -8.719,11.848 v 23.696 c 0,6.539 3.907,11.848 8.719,11.848 h 139.45 c 4.812,0 8.718,-5.309 8.718,-11.848 z"
   charters-color="0"
   inkscape:connector-curvature="0"
   style="fill:url(#linearGradient900);stroke:#000000;stroke-width:2.66000009px" />
    </g><text
   id="text900"
   x="118.92585"
   y="120.2785"
   font-size="40px"
   letter-spacing="0px"
   text-align="center"
   word-spacing="0px"
   style="font-size:13.01990795px;line-height:1.25;font-family:Consolas;text-align:center;letter-spacing:0px;word-spacing:0px;text-anchor:middle;fill:#000000;stroke-width:0.32549778"
   xml:space="preserve"
   transform="scale(1.0068884,0.9931587)"><tspan
     id="tspan898"
     x="118.92585"
     y="120.2785"
     style="stroke-width:0.32549778">Item</tspan></text>



<g
   id="g2376"
   transform="matrix(0.3277399,0,0,0.32327091,0.00262193,-0.08776905)"
   style="opacity:0.5;fill:url(#linearGradient1288);stroke:#000000">
        <path
   id="path2374"
   d="M 691,63.599 C 691,51.28 680.999,41.278 668.68,41.278 H 63.59 c -12.319,0 -22.321,10.002 -22.321,22.321 v 44.642 c 0,12.319 10.002,22.32 22.321,22.32 h 605.09 c 12.319,0 22.32,-10.001 22.32,-22.32 z"
   charters-color="0"
   inkscape:connector-curvature="0"
   style="fill:url(#linearGradient904);stroke:#000000;stroke-width:3.17000008px" />
    </g><text
   id="name"
   x="119.68153"
   y="32.725201"
   font-size="46.667px"
   letter-spacing="0px"
   text-align="center"
   word-spacing="0px"
   style="font-size:15.18999386px;line-height:1.25;font-family:Consolas;text-align:center;letter-spacing:0px;word-spacing:0px;text-anchor:middle;fill:#000000;stroke-width:0.32549778"
   xml:space="preserve"
   transform="scale(1.0068884,0.9931587)"><tspan
     id="tspan902"
     x="119.68153"
     y="32.725201"
     style="stroke-width:0.32549778">MY VERY LENGTHY ITEM NAME</tspan></text>



</svg>