<?xml version="1.0" encoding="UTF-8" standalone="no"?><!-- Created with Inkscape (http://www.inkscape.org/) --><svg xmlns="http://www.w3.org/2000/svg" xmlns:cc="http://creativecommons.org/ns#" xmlns:dc="http://purl.org/dc/elements/1.1/" xmlns:osb="http://www.openswatchbook.org/uri/2009/osb" xmlns:rdf="http://www.w3.org/1999/02/22-rdf-syntax-ns#" xmlns:xlink="http://www.w3.org/1999/xlink" height="3.5in" id="svg8" version="1.1" viewBox="0 0 76.99 88.9" width="3.0311in">
    <title id="title8454">Charters Hex</title>
    <defs id="defs2">
        <linearGradient id="linearGradient4678" osb:paint="solid">
            <stop id="stop4676" offset="0"/>
        </linearGradient>
        <linearGradient id="charters-blue" osb:paint="solid">
            <stop id="stop4664" offset="0" stop-color="#0014fe"/>
        </linearGradient>
        <clipPath id="clipPath828">
            <path d="m38.495 86.36-36.295-20.955-1.1e-6 -41.91 36.295-20.955 36.295 20.955 1e-6 41.91z" fill="#fff" id="path830"/>
        </clipPath>
        <clipPath id="clipPath914">
            <path d="m38.495 86.36-36.295-20.955-1.1e-6 -41.91 36.295-20.955 36.295 20.955 1e-6 41.91z" fill="#fff" id="path916"/>
        </clipPath>
        <clipPath id="clipPath948">
            <path d="m38.495 86.36-36.295-20.955-1.1e-6 -41.91 36.295-20.955 36.295 20.955 1e-6 41.91z" fill="#fff" id="path950"/>
        </clipPath>
        <linearGradient gradientUnits="userSpaceOnUse" id="linearGradient4668" x1="2.1997" x2="74.789" xlink:href="#charters-blue" y1="73.025" y2="73.025"/>
        <linearGradient gradientUnits="userSpaceOnUse" id="linearGradient4674" x1="2.1997" x2="74.789" xlink:href="#charters-blue" y1="60.96" y2="60.96"/>
        <linearGradient gradientUnits="userSpaceOnUse" id="linearGradient4680" x1="2.1997" x2="74.789" xlink:href="#charters-blue" y1="67.945" y2="67.945"/>
        <linearGradient gradientUnits="userSpaceOnUse" id="linearGradient4686" x1="17.667" x2="58.115" xlink:href="#charters-blue" y1="80.963" y2="80.963"/>
        <clipPath id="clipPath6226">
            <g id="g6236">
                <rect clip-path="url(#clipPath914)" fill="url(#linearGradient4668)" height="5.08" id="rect6228" opacity=".75" width="72.593" x="2.1962" y="70.485"/>
                <rect fill="url(#linearGradient4674)" height="8.89" id="rect6230" opacity=".75" width="72.59" x="2.1997" y="56.515"/>
                <rect clip-path="url(#clipPath828)" fill="url(#linearGradient4680)" height="5.08" id="rect6232" opacity=".5" width="72.59" x="2.1997" y="65.405"/>
                <rect clip-path="url(#clipPath948)" fill="url(#linearGradient4686)" height="16.844" id="rect6234" opacity=".5" width="40.449" x="17.667" y="75.565"/>
            </g>
        </clipPath>
        <clipPath id="clipPath939">
            <path d="m38.495 2.5399-36.295 20.955v33.02h72.59v-33.02z" fill="#fff" id="path941"/>
        </clipPath>
        <linearGradient gradientUnits="userSpaceOnUse" id="linearGradient4577" x1="33.264" x2="43.648" xlink:href="#linearGradient4678" y1="68.122" y2="68.122"/>
        <linearGradient gradientUnits="userSpaceOnUse" id="linearGradient4583" x1="31.168" x2="45.821" xlink:href="#linearGradient4678" y1="73.025" y2="73.025"/>
        <linearGradient gradientUnits="userSpaceOnUse" id="linearGradient4589" x1="30.863" x2="44.315" xlink:href="#linearGradient4678" y1="79.103" y2="79.103"/>
    </defs>
    <metadata id="metadata5">
        <rdf:RDF>
            <cc:Work rdf:about="">
                <dc:format>image/svg+xml</dc:format>
                <dc:type rdf:resource="http://purl.org/dc/dcmitype/StillImage"/>
                <dc:title>Charters Hex</dc:title>
                <dc:creator>
                    <cc:Agent>
                        <dc:title>B. Ranson</dc:title>
                    </cc:Agent>
                </dc:creator>
            </cc:Work>
        </rdf:RDF>
    </metadata>
    <g id="layer6">
        <path d="m38.495 86.36-36.295-20.955-1.1e-6 -41.91 36.295-20.955 36.295 20.955 1e-6 41.91z" fill="#fff" id="path1580"/>
    </g>
    <g id="layer7" opacity=".5">
        <g clip-path="url(#clipPath939)" id="g6258" style="">
            <image height="62.704" id="art" image-rendering="optimizeSpeed" preserveAspectRatio="none" width="94.056" xlink:href="../../art/improvement/castle.png"/>
        </g>
    </g>
    <g id="layer8">
        <path clip-path="url(#clipPath6226)" d="m38.495 86.36-36.295-20.955-1.1e-6 -41.91 36.295-20.955 36.295 20.955 1e-6 41.91z" fill="#fff" id="path6173"/>
        <rect clip-path="url(#clipPath914)" fill="url(#linearGradient4668)" height="5.08" id="rect854" opacity=".75" width="72.593" x="2.1962" y="70.485"/>
        <rect fill="url(#linearGradient4674)" height="8.89" id="rect1584" opacity=".75" width="72.59" x="2.1997" y="56.515"/>
        <g>
            <rect clip-path="url(#clipPath828)" fill="url(#charters-red)" height="5.08" id="rect1606" opacity=".5" width="72.59" x="2.1997" y="65.405"/>
            <rect clip-path="url(#clipPath948)" fill="url(#linearGradient4686)" height="16.844" id="rect941" opacity=".5" width="40.449" x="17.667" y="75.565"/>
            <text fill="#000000" font-family="Consolas" font-size="7.0556px" id="name" letter-spacing="0px" stroke-width=".26458" style="line-height:1.25" text-align="center" text-anchor="middle" word-spacing="0px" x="38.623726" xml:space="preserve" y="63.362957">Castle</text>
        </g>
        <g font-family="Consolas" letter-spacing="0px" stroke-width=".26458" text-anchor="middle" word-spacing="0px">
            <text fill="url(#linearGradient4577)" font-size="4.9389px" id="types" style="line-height:1.25" text-align="center" x="38.496944" xml:space="preserve" y="69.196602"/>
            <text fill="url(#linearGradient4583)" font-size="4.9389px" id="cost" style="line-height:1.25" text-align="center" x="38.496944" xml:space="preserve" y="74.276604">[R]</text>
            <text fill="url(#linearGradient4589)" font-size="8.4667px" id="hp" style="line-height:1.25" text-align="center" x="37.783543" xml:space="preserve" y="81.804695">3HP</text>
        </g>
    </g>
    <g id="layer1" transform="translate(0,-208.1)">
        <path d="m38.495 208.1-38.495 22.225v44.45l38.495 22.225 38.495-22.225v-44.45zm0 2.5399 36.295 20.955v41.91l-36.295 20.955-36.295-20.955v-41.91z" id="path1548"/>
    </g>
</svg>