<?xml version="1.0" encoding="UTF-8" standalone="no"?>
<!-- Created with Inkscape (http://www.inkscape.org/) -->

<svg
   xmlns:dc="http://purl.org/dc/elements/1.1/"
   xmlns:cc="http://creativecommons.org/ns#"
   xmlns:rdf="http://www.w3.org/1999/02/22-rdf-syntax-ns#"
   xmlns:svg="http://www.w3.org/2000/svg"
   xmlns="http://www.w3.org/2000/svg"
   xmlns:sodipodi="http://sodipodi.sourceforge.net/DTD/sodipodi-0.dtd"
   xmlns:inkscape="http://www.inkscape.org/namespaces/inkscape"
   id="svg8"
   version="1.1"
   viewBox="0 0 88.900001 88.900003"
   height="3.5in"
   width="3.5in"
   inkscape:version="0.92.3 (2405546, 2018-03-11)"
   sodipodi:docname="template-art.svg">
  <defs
     id="defs2" />
  <sodipodi:namedview
     inkscape:window-maximized="1"
     inkscape:window-y="-8"
     inkscape:window-x="-8"
     inkscape:window-height="1017"
     inkscape:window-width="1920"
     inkscape:snap-bbox-midpoints="true"
     inkscape:snap-bbox="true"
     units="in"
     showgrid="false"
     inkscape:current-layer="layer1"
     inkscape:document-units="mm"
     inkscape:cy="169.59731"
     inkscape:cx="-41.117967"
     inkscape:zoom="1.1279297"
     inkscape:pageshadow="2"
     inkscape:pageopacity="0.0"
     borderopacity="1.0"
     bordercolor="#666666"
     pagecolor="#ffffff"
     id="base" />
  <metadata
     id="metadata5">
    <rdf:RDF>
      <cc:Work
         rdf:about="">
        <dc:format>image/svg+xml</dc:format>
        <dc:type
           rdf:resource="http://purl.org/dc/dcmitype/StillImage" />
        <dc:title></dc:title>
      </cc:Work>
    </rdf:RDF>
  </metadata>
  <g
     inkscape:label="Layer 1"
     inkscape:groupmode="layer"
     id="layer1"
     transform="translate(0,-208.09998)">
    <path
       style="opacity:0.467;fill:#ece700;fill-opacity:1;stroke:none;stroke-width:9.78908062;stroke-miterlimit:1.5;stroke-dasharray:none;stroke-opacity:1"
       d="M 168,-72 A 240,240 0 0 0 -72,168 240,240 0 0 0 168,408 240,240 0 0 0 408,168 240,240 0 0 0 168,-72 Z m 0,16.03125 A 223.96801,223.96801 0 0 1 391.96875,168 223.96801,223.96801 0 0 1 168,391.96875 223.96801,223.96801 0 0 1 -55.96875,168 223.96801,223.96801 0 0 1 168,-55.96875 Z"
       id="circle847"
       inkscape:connector-curvature="0"
       transform="matrix(0.26458333,0,0,0.26458333,0,208.09998)" />
    <path
       style="opacity:0.467;fill:#fe7900;fill-opacity:1;stroke:none;stroke-width:2.41701388;stroke-miterlimit:1.5;stroke-dasharray:none;stroke-opacity:1"
       d="m 44.449998,193.29158 a 59.258202,59.258202 0 0 0 -59.258398,59.2584 59.258202,59.258202 0 0 0 59.258398,59.2584 59.258202,59.258202 0 0 0 59.258402,-59.2584 59.258202,59.258202 0 0 0 -59.258402,-59.2584 z m 0,4.2292 a 55.029097,55.029097 0 0 1 5.493721,0.27492 55.029097,55.029097 0 0 1 5.438944,0.82217 55.029097,55.029097 0 0 1 5.329393,1.36064 55.029097,55.029097 0 0 1 5.16712,1.88619 55.029097,55.029097 0 0 1 4.95319,2.39262 55.029097,55.029097 0 0 1 4.689643,2.87528 55.029097,55.029097 0 0 1 4.37854,3.32899 55.029097,55.029097 0 0 1 4.02508,3.74913 55.029097,55.029097 0 0 1 3.63027,4.13256 55.029097,55.029097 0 0 1 3.19929,4.47415 55.029097,55.029097 0 0 1 2.7373,4.7718 55.029097,55.029097 0 0 1 2.24689,5.02036 55.029097,55.029097 0 0 1 1.73426,5.22036 55.029097,55.029097 0 0 1 1.20458,5.36711 55.029097,55.029097 0 0 1 0.663,5.46013 55.029097,55.029097 0 0 1 0.13798,3.89279 55.029097,55.029097 0 0 1 -0.27492,5.49372 55.029097,55.029097 0 0 1 -0.82217,5.43894 55.029097,55.029097 0 0 1 -1.36064,5.32939 55.029097,55.029097 0 0 1 -1.88619,5.16713 55.029097,55.029097 0 0 1 -2.39262,4.95319 55.029097,55.029097 0 0 1 -2.87528,4.68963 55.029097,55.029097 0 0 1 -3.32899,4.37855 55.029097,55.029097 0 0 1 -3.74913,4.02508 55.029097,55.029097 0 0 1 -4.13256,3.63026 55.029097,55.029097 0 0 1 -4.47415,3.19929 55.029097,55.029097 0 0 1 -4.771803,2.7373 55.029097,55.029097 0 0 1 -5.02036,2.24689 55.029097,55.029097 0 0 1 -5.220356,1.73427 55.029097,55.029097 0 0 1 -5.367115,1.20457 55.029097,55.029097 0 0 1 -5.460132,0.66301 55.029097,55.029097 0 0 1 -3.892785,0.13798 55.029097,55.029097 0 0 1 -5.493721,-0.27492 55.029097,55.029097 0 0 1 -5.438945,-0.82217 55.029097,55.029097 0 0 1 -5.32939,-1.36064 55.029097,55.029097 0 0 1 -5.167127,-1.88619 55.029097,55.029097 0 0 1 -4.953186,-2.39262 55.029097,55.029097 0 0 1 -4.689636,-2.87528 55.029097,55.029097 0 0 1 -4.3785435,-3.32899 55.029097,55.029097 0 0 1 -4.025078,-3.74913 55.029097,55.029097 0 0 1 -3.630269,-4.13256 55.029097,55.029097 0 0 1 -3.199288,-4.47415 55.029097,55.029097 0 0 1 -2.7373,-4.7718 55.029097,55.029097 0 0 1 -2.246891,-5.02037 55.029097,55.029097 0 0 1 -1.734262,-5.22035 55.029097,55.029097 0 0 1 -1.204577,-5.36711 55.029097,55.029097 0 0 1 -0.6630095,-5.46014 55.029097,55.029097 0 0 1 -0.137976,-3.89278 55.029097,55.029097 0 0 1 0.274919,-5.49372 55.029097,55.029097 0 0 1 0.8221725,-5.43895 55.029097,55.029097 0 0 1 1.36064,-5.32939 55.029097,55.029097 0 0 1 1.88619,-5.16712 55.029097,55.029097 0 0 1 2.392619,-4.95319 55.029097,55.029097 0 0 1 2.875276,-4.68964 55.029097,55.029097 0 0 1 3.328996,-4.37854 55.029097,55.029097 0 0 1 3.749125,-4.02508 55.029097,55.029097 0 0 1 4.1325645,-3.63027 55.029097,55.029097 0 0 1 4.474145,-3.19928 55.029097,55.029097 0 0 1 4.771802,-2.73731 55.029097,55.029097 0 0 1 5.020365,-2.24689 55.029097,55.029097 0 0 1 5.220352,-1.73426 55.029097,55.029097 0 0 1 5.367115,-1.20458 55.029097,55.029097 0 0 1 5.460132,-0.663 55.029097,55.029097 0 0 1 3.892786,-0.13798 z"
       id="circle845"
       inkscape:connector-curvature="0" />
    <path
       style="opacity:0.467;fill:#fc0000;fill-opacity:1;stroke:none;stroke-width:8.48321819;stroke-miterlimit:1.5;stroke-dasharray:none;stroke-opacity:1"
       d="M 168,-39.984375 A 207.98399,207.98399 0 0 0 -39.984375,168 207.98399,207.98399 0 0 0 168,375.98438 207.98399,207.98399 0 0 0 375.98438,168 207.98399,207.98399 0 0 0 168,-39.984375 Z M 168,-24 A 192,192 0 0 1 360,168 192,192 0 0 1 168,360 192,192 0 0 1 -24,168 192,192 0 0 1 168,-24 Z"
       id="circle843"
       inkscape:connector-curvature="0"
       transform="matrix(0.26458333,0,0,0.26458333,0,208.09998)" />
    <path
       style="opacity:0.467;fill:#8900c8;fill-opacity:1;stroke:none;stroke-width:7.83126497;stroke-miterlimit:1.5;stroke-dasharray:none;stroke-opacity:1"
       d="M 168,-24 A 192,192 0 0 0 -24,168 192,192 0 0 0 168,360 192,192 0 0 0 360,168 192,192 0 0 0 168,-24 Z m 0,16.03125 A 175.968,175.968 0 0 1 343.96875,168 175.968,175.968 0 0 1 168,343.96875 175.968,175.968 0 0 1 -7.96875,168 175.968,175.968 0 0 1 168,-7.96875 Z"
       id="circle841"
       inkscape:connector-curvature="0"
       transform="matrix(0.26458333,0,0,0.26458333,0,208.09998)" />
    <path
       style="opacity:0.467;fill:#0019fe;fill-opacity:1;stroke:none;stroke-width:7.17735434;stroke-miterlimit:1.5;stroke-dasharray:none;stroke-opacity:1"
       d="M 168,-7.96875 A 175.968,175.968 0 0 0 -7.96875,168 175.968,175.968 0 0 0 168,343.96875 175.968,175.968 0 0 0 343.96875,168 175.968,175.968 0 0 0 168,-7.96875 Z m 0,15.984375 A 159.98401,159.98401 0 0 1 327.98438,168 159.98401,159.98401 0 0 1 168,327.98438 159.98401,159.98401 0 0 1 8.015625,168 159.98401,159.98401 0 0 1 168,8.015625 Z"
       id="circle839"
       inkscape:connector-curvature="0"
       transform="matrix(0.26458333,0,0,0.26458333,0,208.09998)" />
    <path
       style="opacity:0.467;fill:#00ae06;fill-opacity:1;stroke:none;stroke-width:6.52540159;stroke-miterlimit:1.5;stroke-dasharray:none;stroke-opacity:1"
       d="M 168,8.015625 A 159.98401,159.98401 0 0 0 8.015625,168 159.98401,159.98401 0 0 0 168,327.98438 159.98401,159.98401 0 0 0 327.98438,168 159.98401,159.98401 0 0 0 168,8.015625 Z M 168,24 A 143.99999,143.99999 0 0 1 312,168 143.99999,143.99999 0 0 1 168,312 143.99999,143.99999 0 0 1 24,168 143.99999,143.99999 0 0 1 168,24 Z"
       id="circle837"
       inkscape:connector-curvature="0"
       transform="matrix(0.26458333,0,0,0.26458333,0,208.09998)" />
    <path
       style="opacity:0.467;fill:#ece700;fill-opacity:1;stroke:none;stroke-width:5.87344837;stroke-miterlimit:1.5;stroke-dasharray:none;stroke-opacity:1"
       d="M 168,24 A 143.99999,143.99999 0 0 0 24,168 143.99999,143.99999 0 0 0 168,312 143.99999,143.99999 0 0 0 312,168 143.99999,143.99999 0 0 0 168,24 Z m 0,16.03125 A 127.968,127.968 0 0 1 295.96875,168 127.968,127.968 0 0 1 168,295.96875 127.968,127.968 0 0 1 40.03125,168 127.968,127.968 0 0 1 168,40.03125 Z"
       id="circle835"
       inkscape:connector-curvature="0"
       transform="matrix(0.26458333,0,0,0.26458333,0,208.09998)" />
    <path
       style="opacity:0.467;fill:#fe7900;fill-opacity:1;stroke:none;stroke-width:5.21953821;stroke-miterlimit:1.5;stroke-dasharray:none;stroke-opacity:1"
       d="M 168,40.03125 A 127.968,127.968 0 0 0 40.03125,168 127.968,127.968 0 0 0 168,295.96875 127.968,127.968 0 0 0 295.96875,168 127.968,127.968 0 0 0 168,40.03125 Z m 0,15.984375 A 111.984,111.984 0 0 1 279.98438,168 111.984,111.984 0 0 1 168,279.98438 111.984,111.984 0 0 1 56.015625,168 111.984,111.984 0 0 1 168,56.015625 Z"
       id="circle833"
       inkscape:connector-curvature="0"
       transform="matrix(0.26458333,0,0,0.26458333,0,208.09998)" />
    <path
       style="opacity:0.467;fill:#fc0000;fill-opacity:1;stroke:none;stroke-width:4.56758547;stroke-miterlimit:1.5;stroke-dasharray:none;stroke-opacity:1"
       d="M 168,56.015625 A 111.984,111.984 0 0 0 56.015625,168 111.984,111.984 0 0 0 168,279.98438 111.984,111.984 0 0 0 279.98438,168 111.984,111.984 0 0 0 168,56.015625 Z M 168,72 a 95.999999,95.999999 0 0 1 96,96 95.999999,95.999999 0 0 1 -96,96 95.999999,95.999999 0 0 1 -96,-96 95.999999,95.999999 0 0 1 96,-96 z"
       id="circle831"
       inkscape:connector-curvature="0"
       transform="matrix(0.26458333,0,0,0.26458333,0,208.09998)" />
    <path
       style="opacity:0.467;fill:#8900c8;fill-opacity:1;stroke:none;stroke-width:3.91563249;stroke-miterlimit:1.5;stroke-dasharray:none;stroke-opacity:1"
       d="m 168,72 a 95.999999,95.999999 0 0 0 -96,96 95.999999,95.999999 0 0 0 96,96 95.999999,95.999999 0 0 0 96,-96 95.999999,95.999999 0 0 0 -96,-96 z m 0,16.03125 A 79.967997,79.967997 0 0 1 247.96875,168 79.967997,79.967997 0 0 1 168,247.96875 79.967997,79.967997 0 0 1 88.03125,168 79.967997,79.967997 0 0 1 168,88.03125 Z"
       id="circle829"
       inkscape:connector-curvature="0"
       transform="matrix(0.26458333,0,0,0.26458333,0,208.09998)" />
    <path
       style="opacity:0.467;fill:#0019fe;fill-opacity:1;stroke:none;stroke-width:3.26172161;stroke-miterlimit:1.5;stroke-dasharray:none;stroke-opacity:1"
       d="M 168,88.03125 A 79.967997,79.967997 0 0 0 88.03125,168 79.967997,79.967997 0 0 0 168,247.96875 79.967997,79.967997 0 0 0 247.96875,168 79.967997,79.967997 0 0 0 168,88.03125 Z m 0,15.98437 A 63.984,63.984 0 0 1 231.98438,168 63.984,63.984 0 0 1 168,231.98438 63.984,63.984 0 0 1 104.01562,168 63.984,63.984 0 0 1 168,104.01562 Z"
       id="circle827"
       inkscape:connector-curvature="0"
       transform="matrix(0.26458333,0,0,0.26458333,0,208.09998)" />
    <path
       style="opacity:0.467;fill:#00ae06;fill-opacity:1;stroke:none;stroke-width:2.60976887;stroke-miterlimit:1.5;stroke-dasharray:none;stroke-opacity:1"
       d="M 168,104.01562 A 63.984,63.984 0 0 0 104.01562,168 63.984,63.984 0 0 0 168,231.98438 63.984,63.984 0 0 0 231.98438,168 63.984,63.984 0 0 0 168,104.01562 Z M 168,120 a 47.999999,47.999999 0 0 1 48,48 47.999999,47.999999 0 0 1 -48,48 47.999999,47.999999 0 0 1 -48,-48 47.999999,47.999999 0 0 1 48,-48 z"
       id="circle825"
       inkscape:connector-curvature="0"
       transform="matrix(0.26458333,0,0,0.26458333,0,208.09998)" />
    <path
       style="opacity:0.467;fill:#ece700;fill-opacity:1;stroke:none;stroke-width:1.957816;stroke-miterlimit:1.5;stroke-dasharray:none;stroke-opacity:1"
       d="m 168,120 a 47.999999,47.999999 0 0 0 -48,48 47.999999,47.999999 0 0 0 48,48 47.999999,47.999999 0 0 0 48,-48 47.999999,47.999999 0 0 0 -48,-48 z m 0,16.03125 A 31.968002,31.968002 0 0 1 199.96875,168 31.968002,31.968002 0 0 1 168,199.96875 31.968002,31.968002 0 0 1 136.03125,168 31.968002,31.968002 0 0 1 168,136.03125 Z"
       id="circle823"
       inkscape:connector-curvature="0"
       transform="matrix(0.26458333,0,0,0.26458333,0,208.09998)" />
    <path
       style="opacity:0.467;fill:#fe7900;fill-opacity:1;stroke:none;stroke-width:1.30390561;stroke-miterlimit:1.5;stroke-dasharray:none;stroke-opacity:1"
       d="M 168,136.03125 A 31.968002,31.968002 0 0 0 136.03125,168 31.968002,31.968002 0 0 0 168,199.96875 31.968002,31.968002 0 0 0 199.96875,168 31.968002,31.968002 0 0 0 168,136.03125 Z m 0,15.98437 A 15.984001,15.984001 0 0 1 183.98438,168 15.984001,15.984001 0 0 1 168,183.98438 15.984001,15.984001 0 0 1 152.01562,168 15.984001,15.984001 0 0 1 168,152.01562 Z"
       id="circle821"
       inkscape:connector-curvature="0"
       transform="matrix(0.26458333,0,0,0.26458333,0,208.09998)" />
    <circle
       style="opacity:0.467;fill:#fc0000;fill-opacity:1;stroke:none;stroke-width:0.17249586;stroke-miterlimit:1.5;stroke-dasharray:none;stroke-opacity:1"
       id="path819"
       cx="44.450001"
       cy="252.54997"
       r="4.2291002" />
  </g>
</svg>
