<?xml version="1.0" encoding="UTF-8" standalone="no"?><svg xmlns="http://www.w3.org/2000/svg" xmlns:cc="http://creativecommons.org/ns#" xmlns:dc="http://purl.org/dc/elements/1.1/" xmlns:osb="http://www.openswatchbook.org/uri/2009/osb" xmlns:rdf="http://www.w3.org/1999/02/22-rdf-syntax-ns#" xmlns:xlink="http://www.w3.org/1999/xlink" clip-rule="evenodd" fill-rule="evenodd" height="1.75in" id="svg52" stroke-linecap="round" stroke-linejoin="round" stroke-miterlimit="1.5" version="1.1" viewBox="0 0 240 168" width="2.5in" xml:space="preserve"><metadata id="metadata58"><rdf:RDF><cc:Work rdf:about=""><dc:format>image/svg+xml</dc:format><dc:type rdf:resource="http://purl.org/dc/dcmitype/StillImage"/><dc:title/></cc:Work></rdf:RDF></metadata><defs id="defs56"><linearGradient id="linearGradient889" osb:paint="solid"><stop id="stop887" offset="0" stop-color="#fc3500"/></linearGradient><linearGradient id="charters-blue" osb:paint="solid"><stop id="stop882" offset="0" stop-color="#0019fe"/></linearGradient><linearGradient id="charters-orange" osb:paint="solid"><stop id="stop876" offset="0" stop-color="#fe7900"/></linearGradient><linearGradient id="charters-violet" osb:paint="solid"><stop id="stop870" offset="0" stop-color="#8900c8"/></linearGradient><linearGradient id="charters-green" osb:paint="solid"><stop id="stop864" offset="0" stop-color="#00ae06"/></linearGradient><linearGradient id="charters-yellow" osb:paint="solid"><stop id="stop858" offset="0" stop-color="#ece700"/></linearGradient><linearGradient id="charters-red" osb:paint="solid"><stop id="stop852" offset="0" stop-color="#fc0000"/></linearGradient><clipPath id="clipPath2344"><g fill="none" id="g2348" stroke="#0029f1" transform="matrix(1,0,0,1.4784,-1407.7,-1072.4)">
        <path d="m691 63.599c0-12.319-14.786-22.321-33-22.321h-583.73c-18.213 0-33 10.002-33 22.321v44.642c0 12.319 14.787 22.32 33 22.32h583.73c18.214 0 33-10.001 33-22.32z" fill="none" id="path2346" stroke="#0029f1" stroke-width="2.51px"/>
    </g></clipPath><linearGradient gradientUnits="userSpaceOnUse" id="linearGradient2388" x1="39.693" x2="692.59" xlink:href="#charters-red" y1="85.92" y2="85.92"/><clipPath id="clipPath2414"><g id="g2418" transform="matrix(1.8977,0,0,2.5382,-332.92,-340.44)">
        <path d="m517.05 304.62c15.025-13.002 22.935-27.752 22.935-42.766s-7.91-29.764-22.935-42.767h-296.5c-15.024 13.003-22.934 27.753-22.934 42.767s7.91 29.764 22.934 42.766z" fill="#ffffff" id="path2416" stroke="#000000" stroke-width="1.41px"/>
    </g></clipPath><linearGradient gradientUnits="userSpaceOnUse" id="linearGradient2428" x1="520.89" x2="680.01" xlink:href="#charters-red" y1="226.16" y2="226.16"/><linearGradient gradientUnits="userSpaceOnUse" id="linearGradient2477" x1="520.68" x2="680.22" xlink:href="#charters-red" y1="226.16" y2="226.16"/><linearGradient gradientUnits="userSpaceOnUse" id="linearGradient908" x2="732.28" xlink:href="#charters-red" y1="259.84" y2="259.84"/></defs>
    <path d="m239.99 7.6353c0-4.3861-3.6101-7.9473-8.0572-7.9473h-223.89c-4.4468 0-8.0572 3.5612-8.0572 7.9473v152.11c0 4.3861 3.6104 7.9473 8.0572 7.9473h223.89c4.4471 0 8.0572-3.5612 8.0572-7.9473z" id="path2" stroke-width=".3255"/>
    <g fill="url(#linearGradient908)" id="g6" transform="matrix(.31123 0 0 .30033 6.0375 5.6485)">
        <path charters-color="0" d="m732.28 24.584c0-13.568-10.776-24.584-24.05-24.584h-684.18c-13.274 0-24.051 11.016-24.051 24.584v470.52c0 13.568 10.777 24.584 24.051 24.584h684.18c13.274 0 24.05-11.016 24.05-24.584z" fill="#ece700" id="path4"/>
    </g>
    <g id="g10" transform="matrix(.62195 0 0 1.0886 -109.39 -208.16)">
        <path d="m517.05 304.62c15.025-13.002 22.935-27.752 22.935-42.766s-7.91-29.764-22.935-42.767h-296.5c-15.024 13.003-22.934 27.753-22.934 42.767s7.91 29.764 22.934 42.766z" id="path8"/>
    </g>
    <g fill="#ffffff" id="g2339" stroke="#000000" transform="matrix(.32774 0 0 .47792 -.0053782 92.26)">
        <path d="m691 63.599c0-12.319-14.786-22.321-33-22.321h-583.73c-18.213 0-33 10.002-33 22.321v44.642c0 12.319 14.787 22.32 33 22.32h583.73c18.214 0 33-10.001 33-22.32z" fill="#ffffff" id="path2337" stroke="#000000" stroke-width="2.51px"/>
    </g><g clip-path="url(#clipPath2344)" fill="none" id="g2342" opacity=".75" transform="matrix(.32774 0 0 .32327 461.35 438.95)"><image fill="none" height="1753.3" id="image2334" preserveAspectRatio="none" width="2629.9" x="-2626.6" xlink:href="file:///D:/Projects/Charters-Board-Game/resource/visual/card/art/template/navigation-background.png" y="-2554.4"/></g><g id="g18" transform="matrix(.34468 0 0 .5525 -32.897 21.458)">
        <path d="m678.89 214.32c0-6.539-8.627-11.848-19.254-11.848h-118.38c-10.627 0-19.255 5.309-19.255 11.848v23.696c0 6.539 8.628 11.848 19.255 11.848h118.38c10.627 0 19.254-5.309 19.254-11.848z" fill="#ffffff" id="path16" stroke="#000000" stroke-width="2.23px"/>
    </g>
    <g id="g22" transform="matrix(.34468 0 0 .5525 -141.05 21.458)">
        <path d="m678.89 214.32c0-6.539-8.627-11.848-19.254-11.848h-118.38c-10.627 0-19.255 5.309-19.255 11.848v23.696c0 6.539 8.628 11.848 19.255 11.848h118.38c10.627 0 19.254-5.309 19.254-11.848z" fill="#ffffff" id="path20" stroke="#000000" stroke-width="2.23px"/>
    </g>
    <g fill="#ffffff" id="g26" transform="matrix(.32774 0 0 .32327 -.0053782 -.39969)">
        <path d="m691 63.599c0-12.319-10.001-22.321-22.32-22.321h-605.09c-12.319 0-22.321 10.002-22.321 22.321v44.642c0 12.319 10.002 22.32 22.321 22.32h605.09c12.319 0 22.32-10.001 22.32-22.32z" fill="#ffffff" id="path24" stroke="#000000" stroke-width="3.17px"/>
    </g>
    <g id="g30" transform="matrix(.62195 0 0 .82053 -109.39 -137.95)">
        <path d="m517.05 304.62c15.025-13.002 22.935-27.752 22.935-42.766s-7.91-29.764-22.935-42.767h-296.5c-15.024 13.003-22.934 27.753-22.934 42.767s7.91 29.764 22.934 42.766z" fill="#ffffff" id="path28" stroke="#000000" stroke-width="1.41px"/>
    </g>
    <g clip-path="url(#clipPath2414)" id="g2412" transform="matrix(.32774 0 0 .32327 -.27176 -27.901)"><image height="619" id="art" preserveAspectRatio="none" width="825" x="-45.86" xlink:href="D:\Projects\Charters-Board-Game\resource\visual\card\art\template\template-art.png" y="121.21"/></g><g id="g34" transform="matrix(.44412 0 0 .32234 -146.68 42.114)">
        <path d="m678.89 214.32c0-6.539-3.906-11.848-8.718-11.848h-139.45c-4.812 0-8.719 5.309-8.719 11.848v23.696c0 6.539 3.907 11.848 8.719 11.848h139.45c4.812 0 8.718-5.309 8.718-11.848z" fill="#ffffff" id="path32" stroke="#000000" stroke-width="2.66px"/>
    </g>
    <g id="g38" transform="matrix(.34468 0 0 .5525 -86.974 21.458)">
        <path d="m678.89 214.32c0-6.539-8.627-11.848-19.254-11.848h-118.38c-10.627 0-19.255 5.309-19.255 11.848v23.696c0 6.539 8.628 11.848 19.255 11.848h118.38c10.627 0 19.254-5.309 19.254-11.848z" fill="#ffffff" id="path36" stroke="#000000" stroke-width="2.23px"/>
    </g>
    <g fill="url(#linearGradient2428)" id="g2455" opacity=".5" stroke="#000000" transform="matrix(.34468 0 0 .5525 -86.974 21.458)">
        <path charters-color="0" d="m678.89 214.32c0-6.539-8.627-11.848-19.254-11.848h-118.38c-10.627 0-19.255 5.309-19.255 11.848v23.696c0 6.539 8.628 11.848 19.255 11.848h118.38c10.627 0 19.254-5.309 19.254-11.848z" fill="#ece700" id="path2453" stroke="#000000" stroke-width="2.23px"/>
    </g><g id="g42" transform="matrix(2.0585 0 0 .94557 -191.48 -276.71)">
        <ellipse charters-rarity-color="0" cx="151.31" cy="447.48" fill="#ccffff" id="ellipse40" rx="12.418" ry="13.846" stroke="#000000" stroke-width=".68px"/>
    </g>
    <g fill="url(#linearGradient2428)" id="g2463" opacity=".5" stroke="#000000" transform="matrix(.34468 0 0 .5525 -141.05 21.458)">
        <path charters-color="0" d="m678.89 214.32c0-6.539-8.627-11.848-19.254-11.848h-118.38c-10.627 0-19.255 5.309-19.255 11.848v23.696c0 6.539 8.628 11.848 19.255 11.848h118.38c10.627 0 19.254-5.309 19.254-11.848z" fill="#ece700" id="path2461" stroke="#000000" stroke-width="2.23px"/>
    </g><g id="g46" transform="matrix(2.0585 0 0 .94557 -245.56 -276.71)">
        <ellipse charters-rarity-color="0" cx="151.31" cy="447.48" fill="#ccffff" id="ellipse44" rx="12.418" ry="13.846" stroke="#000000" stroke-width=".68px"/>
    </g>
    <g fill="url(#linearGradient2428)" id="g2422" opacity=".5" stroke="#000000" transform="matrix(.34468 0 0 .5525 -32.897 21.458)">
        <path charters-color="0" d="m678.89 214.32c0-6.539-8.627-11.848-19.254-11.848h-118.38c-10.627 0-19.255 5.309-19.255 11.848v23.696c0 6.539 8.628 11.848 19.255 11.848h118.38c10.627 0 19.254-5.309 19.254-11.848z" fill="#ece700" id="path2420" stroke="#000000" stroke-width="2.23px"/>
    </g><g id="g50" transform="matrix(2.0585 0 0 .94557 -137.4 -276.71)">
        <ellipse charters-rarity-color="0" cx="151.31" cy="447.48" fill="#ccffff" id="ellipse48" rx="12.418" ry="13.846" stroke="#000000" stroke-miterlimit="1.5" stroke-width=".68009"/>
    </g>
<text fill="#000000" font-family="Consolas" font-size="15.19px" id="type-0" letter-spacing="0px" stroke-width=".3255" style="font-feature-settings:normal;font-variant-caps:normal;font-variant-ligatures:normal;font-variant-numeric:normal;line-height:1.25" text-align="center" text-anchor="middle" transform="scale(1.0069 .99316)" word-spacing="0px" x="65.47995" xml:space="preserve" y="152.27184">Writ</text>
<text clip-rule="evenodd" fill="#000000" fill-rule="evenodd" font-family="Consolas" font-size="15.19px" id="type-1" letter-spacing="0px" stroke-linecap="round" stroke-linejoin="round" stroke-miterlimit="1.5" stroke-width=".3255" style="font-feature-settings:normal;font-variant-caps:normal;font-variant-ligatures:normal;font-variant-numeric:normal;line-height:1.25" text-align="center" text-anchor="middle" transform="scale(1.0069 .99316)" word-spacing="0px" x="119.18707" xml:space="preserve" y="152.27184"/>
<text clip-rule="evenodd" fill="#000000" fill-rule="evenodd" font-family="Consolas" font-size="15.19px" id="type-2" letter-spacing="0px" stroke-linecap="round" stroke-linejoin="round" stroke-miterlimit="1.5" stroke-width=".3255" style="font-feature-settings:normal;font-variant-caps:normal;font-variant-ligatures:normal;font-variant-numeric:normal;line-height:1.25" text-align="center" text-anchor="middle" transform="scale(1.0069 .99316)" word-spacing="0px" x="172.89507" xml:space="preserve" y="152.27205"/>
<g fill="url(#linearGradient2477)" id="g2471" opacity=".5" stroke="#000000" transform="matrix(.44412 0 0 .32234 -146.68 42.114)">
        <path charters-color="0" d="m678.89 214.32c0-6.539-3.906-11.848-8.718-11.848h-139.45c-4.812 0-8.719 5.309-8.719 11.848v23.696c0 6.539 3.907 11.848 8.719 11.848h139.45c4.812 0 8.718-5.309 8.718-11.848z" fill="#ece700" id="path2469" stroke="#000000" stroke-width="2.66px"/>
    </g><text fill="#000000" font-family="Consolas" font-size="13.02px" id="text900" letter-spacing="0px" stroke-width=".3255" style="line-height:1.25" text-align="center" text-anchor="middle" transform="scale(1.0069 .99316)" word-spacing="0px" x="118.91792" xml:space="preserve" y="119.96438"><tspan id="tspan898" stroke-width=".3255" x="118.91792" y="119.96438">Item</tspan></text>
<g fill="url(#linearGradient2388)" id="g2376" opacity=".5" stroke="#000000" transform="matrix(.32774 0 0 .32327 -.0053782 -.39969)">
        <path charters-color="0" d="m691 63.599c0-12.319-10.001-22.321-22.32-22.321h-605.09c-12.319 0-22.321 10.002-22.321 22.321v44.642c0 12.319 10.002 22.32 22.321 22.32h605.09c12.319 0 22.32-10.001 22.32-22.32z" fill="#ece700" id="path2374" stroke="#000000" stroke-width="3.17px"/>
    </g><text fill="#000000" font-family="Consolas" font-size="15.19px" id="name" letter-spacing="0px" stroke-width=".3255" style="line-height:1.25" text-align="center" text-anchor="middle" transform="scale(1.0069 .99316)" word-spacing="0px" x="119.67352" xml:space="preserve" y="32.411125">Letter of Thanks</text>
</svg>