<?xml version="1.0" encoding="UTF-8"?>
<!-- Created with Inkscape (http://www.inkscape.org/) -->
<svg id="svg8" width="3.0311in" height="3.5in" version="1.1" viewBox="0 0 76.99 88.9" xmlns="http://www.w3.org/2000/svg" xmlns:cc="http://creativecommons.org/ns#" xmlns:dc="http://purl.org/dc/elements/1.1/" xmlns:osb="http://www.openswatchbook.org/uri/2009/osb" xmlns:rdf="http://www.w3.org/1999/02/22-rdf-syntax-ns#" xmlns:xlink="http://www.w3.org/1999/xlink">
    <title id="title8454">Charters Hex</title>
    <defs id="defs2">
        <linearGradient id="linearGradient4678" osb:paint="solid">
            <stop id="stop4676" offset="0"/>
        </linearGradient>
        <linearGradient id="charters-blue" osb:paint="solid">
            <stop id="stop4664" stop-color="#0014fe" offset="0"/>
        </linearGradient>
        <clipPath id="clipPath828">
            <path id="path830" d="m38.495 86.36-36.295-20.955-1.1e-6 -41.91 36.295-20.955 36.295 20.955 1e-6 41.91z" fill="#fff"/>
        </clipPath>
        <clipPath id="clipPath914">
            <path id="path916" d="m38.495 86.36-36.295-20.955-1.1e-6 -41.91 36.295-20.955 36.295 20.955 1e-6 41.91z" fill="#fff"/>
        </clipPath>
        <clipPath id="clipPath948">
            <path id="path950" d="m38.495 86.36-36.295-20.955-1.1e-6 -41.91 36.295-20.955 36.295 20.955 1e-6 41.91z" fill="#fff"/>
        </clipPath>
        <linearGradient id="linearGradient4668" x1="2.1997" x2="74.789" y1="73.025" y2="73.025" gradientUnits="userSpaceOnUse" xlink:href="#charters-blue"/>
        <linearGradient id="linearGradient4674" x1="2.1997" x2="74.789" y1="60.96" y2="60.96" gradientUnits="userSpaceOnUse" xlink:href="#charters-blue"/>
        <linearGradient id="linearGradient4680" x1="2.1997" x2="74.789" y1="67.945" y2="67.945" gradientUnits="userSpaceOnUse" xlink:href="#charters-blue"/>
        <linearGradient id="linearGradient4686" x1="17.667" x2="58.115" y1="80.963" y2="80.963" gradientUnits="userSpaceOnUse" xlink:href="#charters-blue"/>
        <clipPath id="clipPath6226">
            <g id="g6236">
                <rect id="rect6228" x="2.1962" y="70.485" width="72.593" height="5.08" clip-path="url(#clipPath914)" fill="url(#linearGradient4668)" opacity=".75"/>
                <rect id="rect6230" x="2.1997" y="56.515" width="72.59" height="8.89" fill="url(#linearGradient4674)" opacity=".75"/>
                <rect id="rect6232" x="2.1997" y="65.405" width="72.59" height="5.08" clip-path="url(#clipPath828)" fill="url(#linearGradient4680)" opacity=".5"/>
                <rect id="rect6234" x="17.667" y="75.565" width="40.449" height="16.844" clip-path="url(#clipPath948)" fill="url(#linearGradient4686)" opacity=".5"/>
            </g>
        </clipPath>
        <clipPath id="clipPath939">
            <path id="path941" d="m38.495 2.5399-36.295 20.955v33.02h72.59v-33.02z" fill="#fff"/>
        </clipPath>
        <linearGradient id="linearGradient4577" x1="33.264" x2="43.648" y1="68.122" y2="68.122" gradientUnits="userSpaceOnUse" xlink:href="#linearGradient4678"/>
        <linearGradient id="linearGradient4583" x1="31.168" x2="45.821" y1="73.025" y2="73.025" gradientUnits="userSpaceOnUse" xlink:href="#linearGradient4678"/>
        <linearGradient id="linearGradient4589" x1="30.863" x2="44.315" y1="79.103" y2="79.103" gradientUnits="userSpaceOnUse" xlink:href="#linearGradient4678"/>
    </defs>
    <metadata id="metadata5">
        <rdf:RDF>
            <cc:Work rdf:about="">
                <dc:format>image/svg+xml</dc:format>
                <dc:type rdf:resource="http://purl.org/dc/dcmitype/StillImage"/>
                <dc:title>Charters Hex</dc:title>
                <dc:creator>
                    <cc:Agent>
                        <dc:title>B. Ranson</dc:title>
                    </cc:Agent>
                </dc:creator>
            </cc:Work>
        </rdf:RDF>
    </metadata>
    <g id="layer6">
        <path id="path1580" d="m38.495 86.36-36.295-20.955-1.1e-6 -41.91 36.295-20.955 36.295 20.955 1e-6 41.91z" fill="#fff"/>
    </g>
    <g id="layer7" opacity=".5">
        <g id="g6258" clip-path="url(#clipPath939)" style="">
            <image id="art" width="94.056" height="62.704" image-rendering="optimizeSpeed" preserveAspectRatio="none" xlink:href="D:\Projects\Charters-Board-Game\resource\visual\card\template\../../art/template/template-art.png"/>
        </g>
    </g>
    <g id="layer8">
        <path id="path6173" d="m38.495 86.36-36.295-20.955-1.1e-6 -41.91 36.295-20.955 36.295 20.955 1e-6 41.91z" clip-path="url(#clipPath6226)" fill="#fff"/>
        <rect id="rect854" x="2.1962" y="70.485" width="72.593" height="5.08" clip-path="url(#clipPath914)" fill="url(#linearGradient4668)" opacity=".75"/>
        <rect id="rect1584" x="2.1997" y="56.515" width="72.59" height="8.89" fill="url(#linearGradient4674)" opacity=".75"/>
        <g>
            <rect id="rect1606" x="2.1997" y="65.405" width="72.59" height="5.08" clip-path="url(#clipPath828)" fill="url(#linearGradient4680)" opacity=".5"/>
            <rect id="rect941" x="17.667" y="75.565" width="40.449" height="16.844" clip-path="url(#clipPath948)" fill="url(#linearGradient4686)" opacity=".5"/>
            <text id="name" x="38.623726" y="63.362957" fill="#000000" font-family="Consolas" font-size="7.0556px" letter-spacing="0px" stroke-width=".26458" text-align="center" text-anchor="middle" word-spacing="0px" style="line-height:1.25" xml:space="preserve"><tspan id="tspan1596" x="38.623726" y="63.362957" fill="#000000" stroke-width=".26458">Template Improve</tspan></text>
        </g>
        <g font-family="Consolas" letter-spacing="0px" stroke-width=".26458" text-anchor="middle" word-spacing="0px">
            <text id="types" x="38.496944" y="69.196602" fill="url(#linearGradient4577)" font-size="4.9389px" text-align="center" style="line-height:1.25" xml:space="preserve"><tspan id="tspan842" x="38.496944" y="69.196602" fill="url(#linearGradient4577)" stroke-width=".26458">Type</tspan></text>
            <text id="cost" x="38.496944" y="74.276604" fill="url(#linearGradient4583)" font-size="4.9389px" text-align="center" style="line-height:1.25" xml:space="preserve"><tspan id="tspan928" x="38.496944" y="74.276604" fill="url(#linearGradient4583)" stroke-width=".26458">[Cost]<tspan id="tspan926" x="38.496944" y="74.276604" fill="url(#linearGradient4583)" stroke-width=".26458"/></tspan></text>
            <text id="hp" x="37.783543" y="81.804695" fill="url(#linearGradient4589)" font-size="8.4667px" text-align="center" style="line-height:1.25" xml:space="preserve"><tspan id="tspan952" x="37.783543" y="81.804695" fill="url(#linearGradient4589)" stroke-width=".26458">XHP</tspan></text>
        </g>
    </g>
    <g id="layer1" transform="translate(0,-208.1)">
        <path id="path1548" d="m38.495 208.1-38.495 22.225v44.45l38.495 22.225 38.495-22.225v-44.45zm0 2.5399 36.295 20.955v41.91l-36.295 20.955-36.295-20.955v-41.91z"/>
    </g>
</svg>
