<?xml version="1.0" encoding="UTF-8" standalone="no"?>
<!DOCTYPE svg PUBLIC "-//W3C//DTD SVG 1.1//EN" "http://www.w3.org/Graphics/SVG/1.1/DTD/svg11.dtd">
<svg width="100%" height="100%" viewBox="0 0 733 520" version="1.1" xmlns="http://www.w3.org/2000/svg" xmlns:xlink="http://www.w3.org/1999/xlink" xml:space="preserve" xmlns:serif="http://www.serif.com/" style="fill-rule:evenodd;clip-rule:evenodd;stroke-linecap:round;stroke-linejoin:round;stroke-miterlimit:1.5;">
    <path d="M732.283,24.584C732.283,11.016 721.268,0 707.699,0L24.584,0C11.016,0 0,11.016 0,24.584L0,495.101C0,508.669 11.016,519.685 24.584,519.685L707.699,519.685C721.268,519.685 732.283,508.669 732.283,495.101L732.283,24.584Z"/>
    <g transform="matrix(0.949642,0,0,0.929041,18.4382,18.4382)">
        <path d="M732.283,24.584C732.283,11.016 721.507,0 708.233,0L24.051,0C10.777,0 0,11.016 0,24.584L0,495.101C0,508.669 10.777,519.685 24.051,519.685L708.233,519.685C721.507,519.685 732.283,508.669 732.283,495.101L732.283,24.584Z" style="fill:white;"/>
    </g>
    <g transform="matrix(1.89773,0,0,3.36751,-333.736,-642.954)">
        <path d="M517.048,304.619C532.073,291.617 539.983,276.867 539.983,261.853C539.983,246.839 532.073,232.089 517.048,219.086L220.546,219.086C205.522,232.089 197.612,246.839 197.612,261.853C197.612,276.867 205.522,291.617 220.546,304.619L517.048,304.619Z"/>
    </g>
    <g transform="matrix(1,0,0,1.47844,-2.26485e-13,286.359)">
        <path d="M691.005,63.599C691.005,51.28 676.219,41.278 658.005,41.278L74.278,41.278C56.065,41.278 41.278,51.28 41.278,63.599L41.278,108.241C41.278,120.56 56.065,130.561 74.278,130.561L658.005,130.561C676.219,130.561 691.005,120.56 691.005,108.241L691.005,63.599Z" style="fill:white;stroke:black;stroke-width:2.51px;"/>
    </g>
    <g transform="matrix(1.05172,0,0,1.70913,-100.362,67.3434)">
        <path d="M678.892,214.316C678.892,207.777 670.265,202.468 659.638,202.468L541.261,202.468C530.634,202.468 522.006,207.777 522.006,214.316L522.006,238.012C522.006,244.551 530.634,249.86 541.261,249.86L659.638,249.86C670.265,249.86 678.892,244.551 678.892,238.012L678.892,214.316Z" style="fill:white;stroke:black;stroke-width:2.23px;"/>
    </g>
    <g transform="matrix(1.05172,0,0,1.70913,-430.362,67.3434)">
        <path d="M678.892,214.316C678.892,207.777 670.265,202.468 659.638,202.468L541.261,202.468C530.634,202.468 522.006,207.777 522.006,214.316L522.006,238.012C522.006,244.551 530.634,249.86 541.261,249.86L659.638,249.86C670.265,249.86 678.892,244.551 678.892,238.012L678.892,214.316Z" style="fill:white;stroke:black;stroke-width:2.23px;"/>
    </g>
    <g transform="matrix(1,0,0,1,2.27374e-13,-0.27137)">
        <path d="M691.005,63.599C691.005,51.28 681.004,41.278 668.685,41.278L63.599,41.278C51.28,41.278 41.278,51.28 41.278,63.599L41.278,108.241C41.278,120.56 51.28,130.561 63.599,130.561L668.685,130.561C681.004,130.561 691.005,120.56 691.005,108.241L691.005,63.599Z" style="fill:white;stroke:black;stroke-width:3.17px;"/>
    </g>
    <g transform="matrix(1.89773,0,0,2.53815,-333.736,-425.784)">
        <path d="M517.048,304.619C532.073,291.617 539.983,276.867 539.983,261.853C539.983,246.839 532.073,232.089 517.048,219.086L220.546,219.086C205.522,232.089 197.612,246.839 197.612,261.853C197.612,276.867 205.522,291.617 220.546,304.619L517.048,304.619Z" style="fill:white;stroke:black;stroke-width:1.41px;"/>
    </g>
    <g transform="matrix(1.35511,0,0,0.997122,-447.535,131.245)">
        <path d="M678.892,214.316C678.892,207.777 674.986,202.468 670.174,202.468L530.725,202.468C525.913,202.468 522.006,207.777 522.006,214.316L522.006,238.012C522.006,244.551 525.913,249.86 530.725,249.86L670.174,249.86C674.986,249.86 678.892,244.551 678.892,238.012L678.892,214.316Z" style="fill:white;stroke:black;stroke-width:2.66px;"/>
    </g>
    <g transform="matrix(1.05172,0,0,1.70913,-265.362,67.3434)">
        <path d="M678.892,214.316C678.892,207.777 670.265,202.468 659.638,202.468L541.261,202.468C530.634,202.468 522.006,207.777 522.006,214.316L522.006,238.012C522.006,244.551 530.634,249.86 541.261,249.86L659.638,249.86C670.265,249.86 678.892,244.551 678.892,238.012L678.892,214.316Z" style="fill:white;stroke:black;stroke-width:2.23px;"/>
    </g>
    <g transform="matrix(6.28095,0,0,2.92499,-584.231,-854.994)">
        <ellipse cx="151.31" cy="447.482" rx="12.418" ry="13.846" style="fill:white;stroke:black;stroke-width:0.68px;"/>
    </g>
    <g transform="matrix(6.28095,0,0,2.92499,-749.231,-854.994)">
        <ellipse cx="151.31" cy="447.482" rx="12.418" ry="13.846" style="fill:white;stroke:black;stroke-width:0.68px;"/>
    </g>
    <g transform="matrix(6.28095,0,0,2.92499,-419.231,-854.994)">
        <ellipse cx="151.31" cy="447.482" rx="12.418" ry="13.846" style="fill:white;stroke:black;stroke-width:0.68px;"/>
    </g>
</svg>
