<svg xmlns:osb="http://www.openswatchbook.org/uri/2009/osb" xmlns="http://www.w3.org/2000/svg" xmlns:xlink="http://www.w3.org/1999/xlink" height="336" id="svg8" viewBox="0 0 76.99 88.9" width="290.985"><defs id="defs2"><linearGradient id="charters-orange" osb:paint="solid"><stop offset="0" id="stop4585" stop-color="#f1a000"/></linearGradient><linearGradient id="charters-yellow" osb:paint="solid"><stop offset="0" id="stop4579" stop-color="#eaf400"/></linearGradient><linearGradient id="charters-violet" osb:paint="solid"><stop offset="0" id="stop4573" stop-color="#8400d1"/></linearGradient><linearGradient id="charters-green" osb:paint="solid"><stop offset="0" id="stop4567" stop-color="#00991f"/></linearGradient><linearGradient id="linearGradient4684" osb:paint="solid"><stop id="stop4682" offset="0" stop-color="#fe0000"/></linearGradient><linearGradient id="linearGradient4678" osb:paint="solid"><stop id="stop4676" offset="0"/></linearGradient><linearGradient id="charters-red" osb:paint="solid"><stop id="stop4670" offset="0" stop-color="#fe0000"/></linearGradient><linearGradient id="charters-blue" osb:paint="solid"><stop id="stop4664" offset="0" stop-color="#0014fe"/></linearGradient><clipPath id="clipPath828"><path d="M38.495 86.36L2.2 65.405v-41.91L38.495 2.54 74.79 23.495v41.91z" id="path830" fill="#fff" stroke-width="9.199"/></clipPath><clipPath id="clipPath914"><path d="M38.495 86.36L2.2 65.405v-41.91L38.495 2.54 74.79 23.495v41.91z" id="path916" fill="#fff" stroke-width="9.199"/></clipPath><clipPath id="clipPath948"><path d="M38.495 86.36L2.2 65.405v-41.91L38.495 2.54 74.79 23.495v41.91z" id="path950" fill="#fff" stroke-width="9.199"/></clipPath><linearGradient gradientUnits="userSpaceOnUse" id="linearGradient4668" x1="2.2" x2="74.789" xlink:href="#charters-blue" y1="73.025" y2="73.025"/><linearGradient gradientUnits="userSpaceOnUse" id="linearGradient4674" x1="2.2" x2="74.789" xlink:href="#charters-blue" y1="60.96" y2="60.96"/><linearGradient gradientUnits="userSpaceOnUse" id="linearGradient4680" x1="2.2" x2="74.789" xlink:href="#charters-blue" y1="67.945" y2="67.945"/><linearGradient gradientUnits="userSpaceOnUse" id="linearGradient4686" x1="17.667" x2="58.115" xlink:href="#charters-blue" y1="80.963" y2="80.963"/><clipPath id="clipPath6226"/><linearGradient gradientUnits="userSpaceOnUse" id="linearGradient6238" x1="2.2" x2="74.789" xlink:href="#charters-blue" y1="73.025" y2="73.025"/><linearGradient gradientUnits="userSpaceOnUse" id="linearGradient6240" x1="2.2" x2="74.789" xlink:href="#charters-blue" y1="60.96" y2="60.96"/><linearGradient gradientUnits="userSpaceOnUse" id="linearGradient6242" x1="2.2" x2="74.789" xlink:href="#charters-blue" y1="67.945" y2="67.945"/><linearGradient gradientUnits="userSpaceOnUse" id="linearGradient6244" x1="17.667" x2="58.115" xlink:href="#charters-blue" y1="80.963" y2="80.963"/><clipPath id="clipPath939"><path d="M38.495 2.54L2.2 23.495v33.02h72.59v-33.02z" id="path941" fill="#fff" stroke-width="9.199"/></clipPath><linearGradient xlink:href="#linearGradient4678" id="linearGradient4571" x1="7.831" y1="61.635" x2="69.299" y2="61.635" gradientUnits="userSpaceOnUse"/><linearGradient xlink:href="#linearGradient4678" id="linearGradient4577" x1="33.264" y1="68.122" x2="43.648" y2="68.122" gradientUnits="userSpaceOnUse"/><linearGradient xlink:href="#linearGradient4678" id="linearGradient4583" x1="31.168" y1="73.025" x2="45.821" y2="73.025" gradientUnits="userSpaceOnUse"/><linearGradient xlink:href="#linearGradient4678" id="linearGradient4589" x1="30.863" y1="79.103" x2="44.315" y2="79.103" gradientUnits="userSpaceOnUse"/></defs><g id="layer6"><path d="M38.495 86.36L2.2 65.405v-41.91L38.495 2.54 74.79 23.495v41.91z" id="path1580" fill="#fff" stroke-width="9.199"/></g><g id="layer7" opacity=".5"><g clip-path="url(#clipPath939)" id="g6258"><image xlink:href="../../art/template/template-art.png" height="62.704" id="art" preserveAspectRatio="none" width="94.056" image-rendering="optimizeSpeed"/></g></g><g id="layer8"><path clip-path="url(#clipPath6226)" d="M38.495 86.36L2.2 65.405v-41.91L38.495 2.54 74.79 23.495v41.91z" id="path6173" fill="#fff" stroke-width="9.199"/><path clip-path="url(#clipPath914)" id="rect854" opacity=".75" fill="url(#linearGradient4668)" stroke-width="4.443" d="M2.196 70.485h72.593v5.08H2.196z"/><path id="rect1584" opacity=".75" fill="url(#linearGradient4674)" stroke-width="5.878" d="M2.2 56.515h72.59v8.89H2.2z"/><path clip-path="url(#clipPath828)" id="rect1606" opacity=".5" fill="url(#linearGradient4680)" stroke-width="4.443" d="M2.2 65.405h72.59v5.08H2.2z"/><path clip-path="url(#clipPath948)" id="rect941" opacity=".5" fill="url(#linearGradient4686)" stroke-width="6.039" d="M17.667 75.565h40.449v16.844H17.667z"/><text id="name" style="line-height:1.25;-inkscape-font-specification:Consolas;text-align:center" x="38.624" y="63.363" font-weight="400" font-size="7.056" font-family="Consolas" letter-spacing="0" word-spacing="0" text-anchor="middle" stroke-width=".265"><tspan id="tspan1596" x="38.624" y="63.363">Template Improve</tspan></text><text id="types" style="line-height:1.25;-inkscape-font-specification:Consolas;text-align:center" x="38.497" y="69.197" font-weight="400" font-size="4.939" font-family="Consolas" letter-spacing="0" word-spacing="0" text-anchor="middle" fill="url(#linearGradient4577)" stroke-width=".265"><tspan id="tspan842" x="38.497" y="69.197">Type</tspan></text><text id="cost" style="line-height:1.25;-inkscape-font-specification:Consolas;text-align:center" x="38.497" y="74.277" font-weight="400" font-size="4.939" font-family="Consolas" letter-spacing="0" word-spacing="0" text-anchor="middle" fill="url(#linearGradient4583)" stroke-width=".265"><tspan id="tspan928" x="38.497" y="74.277">[Cost]</tspan></text><text id="hp" style="line-height:1.25;-inkscape-font-specification:Consolas;text-align:center" x="37.784" y="81.805" font-weight="400" font-size="8.467" font-family="Consolas" letter-spacing="0" word-spacing="0" text-anchor="middle" fill="url(#linearGradient4589)" stroke-width=".265"><tspan id="tspan952" x="37.784" y="81.805">XHP</tspan></text></g><g id="layer1" transform="translate(0 -208.1)"><path d="M38.495 208.1L0 230.325v44.45L38.495 297l38.495-22.225v-44.45zm0 2.54l36.295 20.955v41.91L38.495 294.46 2.2 273.505v-41.91z" id="path1548" stroke-width="9.491"/></g></svg>