<?xml version="1.0" encoding="UTF-8" standalone="no"?><!DOCTYPE svg PUBLIC "-//W3C//DTD SVG 1.1//EN" "http://www.w3.org/Graphics/SVG/1.1/DTD/svg11.dtd"><svg width="100%" height="100%" viewBox="0 0 125 176" version="1.1" xmlns="http://www.w3.org/2000/svg" xmlns:xlink="http://www.w3.org/1999/xlink" xml:space="preserve" xmlns:serif="http://www.serif.com/" style="fill-rule:evenodd;clip-rule:evenodd;stroke-linecap:round;stroke-linejoin:round;stroke-miterlimit:1.5;"><path d="M5.9,0c-3.256,0 -5.9,2.644 -5.9,5.9l0,163.948c0,3.256 2.644,5.9 5.9,5.9l112.924,0c3.257,0 5.9,-2.644 5.9,-5.9l0,-163.948c0,-3.256 -2.643,-5.9 -5.9,-5.9l-112.924,0Z"/><path d="M9.907,4.425c-3.026,0 -5.482,2.456 -5.482,5.482l0,155.934c0,3.026 2.456,5.482 5.482,5.482l104.911,0c3.025,0 5.481,-2.456 5.481,-5.482l0,-155.934c0,-3.026 -2.456,-5.482 -5.481,-5.482l-104.911,0Z" style="fill:#fff;"/><path d="M110.522,127.513c4.881,-15.127 7.451,-32.286 7.451,-49.753c0,-17.467 -2.57,-34.626 -7.451,-49.753l-96.32,0c-4.881,15.127 -7.45,32.286 -7.45,49.753c0,17.467 2.569,34.626 7.45,49.753l96.32,0Z"/><path d="M101.683,134.161c10.429,-14.958 16.287,-35.246 16.287,-56.401c0,-21.154 -5.858,-41.442 -16.287,-56.401l-78.644,0c-10.429,14.959 -16.287,35.247 -16.287,56.401c0,21.155 5.858,41.443 16.287,56.401l78.644,0Z" style="fill:#fff;stroke:#000;stroke-width:0.76px;"/><path d="M116.362,15.307c0,-2.981 -2.419,-5.4 -5.4,-5.4l-97.2,0c-2.98,0 -5.4,2.419 -5.4,5.4l0,10.8c0,2.98 2.42,5.4 5.4,5.4l97.2,0c2.981,0 5.4,-2.42 5.4,-5.4l0,-10.8Z" style="fill:#fff;stroke:#000;stroke-width:0.76px;"/><path d="M116.361,135.433c0,-4.371 -3.549,-7.92 -7.92,-7.92l-92.16,0c-4.371,0 -7.92,3.549 -7.92,7.92l0,15.84c0,4.371 3.549,7.92 7.92,7.92l92.16,0c4.371,0 7.92,-3.549 7.92,-7.92l0,-15.84Z" style="fill:#fff;stroke:#000;stroke-width:0.76px;"/><path d="M80.361,144.241c0,-3.973 -3.226,-7.2 -7.2,-7.2l-21.6,0c-3.974,0 -7.2,3.227 -7.2,7.2l0,14.4c0,3.974 3.226,7.2 7.2,7.2l21.6,0c3.974,0 7.2,-3.226 7.2,-7.2l0,-14.4Z" style="fill:#fff;stroke:#000;stroke-width:0.76px;"/><ellipse cx="62.361" cy="151.441" rx="17.018" ry="14.4" style="fill:#fff;stroke:#000;stroke-width:0.8px;"/><path d="M118.997,144.241c0,-3.973 -3.226,-7.2 -7.2,-7.2l-21.6,0c-3.974,0 -7.2,3.227 -7.2,7.2l0,14.4c0,3.974 3.226,7.2 7.2,7.2l21.6,0c3.974,0 7.2,-3.226 7.2,-7.2l0,-14.4Z" style="fill:#fff;stroke:#000;stroke-width:0.76px;"/><ellipse cx="100.997" cy="151.441" rx="17.018" ry="14.4" style="fill:#fff;stroke:#000;stroke-width:0.8px;"/><path d="M41.76,144.241c0,-3.973 -3.226,-7.2 -7.2,-7.2l-21.6,0c-3.974,0 -7.2,3.227 -7.2,7.2l0,14.4c0,3.974 3.226,7.2 7.2,7.2l21.6,0c3.974,0 7.2,-3.226 7.2,-7.2l0,-14.4Z" style="fill:#fff;stroke:#000;stroke-width:0.76px;"/><ellipse cx="23.76" cy="151.441" rx="17.018" ry="14.4" style="fill:#fff;stroke:#000;stroke-width:0.8px;"/></svg>