<?xml version="1.0" encoding="UTF-8" standalone="no"?>
<!DOCTYPE svg PUBLIC "-//W3C//DTD SVG 1.1//EN" "http://www.w3.org/Graphics/SVG/1.1/DTD/svg11.dtd">
<svg width="100%" height="100%" viewBox="0 0 520 733" version="1.1" xmlns="http://www.w3.org/2000/svg" xmlns:xlink="http://www.w3.org/1999/xlink" xml:space="preserve" xmlns:serif="http://www.serif.com/" style="fill-rule:evenodd;clip-rule:evenodd;stroke-linecap:round;stroke-linejoin:round;stroke-miterlimit:1.5;">
    <g transform="matrix(6.12323e-17,-1,1,6.12323e-17,0,732.283)">
        <path d="M732.283,24.584C732.283,11.016 721.268,0 707.699,0L24.584,0C11.016,0 0,11.016 0,24.584L0,495.101C0,508.669 11.016,519.685 24.584,519.685L707.699,519.685C721.268,519.685 732.283,508.669 732.283,495.101L732.283,24.584Z"/>
    </g>
    <g transform="matrix(5.81488e-17,-0.949642,0.929041,5.68873e-17,18.4382,713.845)">
        <path d="M732.283,24.584C732.283,11.016 721.507,0 708.233,0L24.051,0C10.777,0 0,11.016 0,24.584L0,495.101C0,508.669 10.777,519.685 24.051,519.685L708.233,519.685C721.507,519.685 732.283,508.669 732.283,495.101L732.283,24.584Z" style="fill:white;"/>
    </g>
    <g transform="matrix(1.35356,0,0,4.84733,-239.349,-945.285)">
        <path d="M517.048,304.619C532.073,291.617 539.983,276.867 539.983,261.853C539.983,246.839 532.073,232.089 517.048,219.086L220.546,219.086C205.522,232.089 197.612,246.839 197.612,261.853C197.612,276.867 205.522,291.617 220.546,304.619L517.048,304.619Z"/>
    </g>
    <g transform="matrix(1.35354,0,0,3.8856,-239.343,-693.455)">
        <path d="M489.844,322.334C521.947,306.293 539.983,284.538 539.983,261.853C539.983,239.168 521.947,217.412 489.844,201.372L247.751,201.372C215.647,217.412 197.612,239.168 197.612,261.853C197.612,284.538 215.647,306.293 247.751,322.334L489.844,322.334Z" style="fill:white;stroke:black;stroke-width:1.09px;"/>
    </g>
    <g transform="matrix(0.692598,0,0,1.00803,6.25346,-0.331282)">
        <path d="M691.005,63.599C691.005,51.28 676.449,41.278 658.519,41.278L73.764,41.278C55.835,41.278 41.278,51.28 41.278,63.599L41.278,108.241C41.278,120.56 55.835,130.561 73.764,130.561L658.519,130.561C676.449,130.561 691.005,120.56 691.005,108.241L691.005,63.599Z" style="fill:white;stroke:black;stroke-width:3.66px;"/>
    </g>
    <g transform="matrix(0.692598,0,0,1.47844,6.24845,470.277)">
        <path d="M691.005,63.599C691.005,51.28 669.656,41.278 643.359,41.278L88.925,41.278C62.628,41.278 41.278,51.28 41.278,63.599L41.278,108.241C41.278,120.56 62.628,130.561 88.925,130.561L643.359,130.561C669.656,130.561 691.005,120.56 691.005,108.241L691.005,63.599Z" style="fill:white;stroke:black;stroke-width:2.74px;"/>
    </g>
    <g transform="matrix(0.956108,0,0,2.53204,-314.257,58.3501)">
        <path d="M678.892,214.316C678.892,207.777 664.833,202.468 647.515,202.468L553.384,202.468C536.066,202.468 522.006,207.777 522.006,214.316L522.006,238.012C522.006,244.551 536.066,249.86 553.384,249.86L647.515,249.86C664.833,249.86 678.892,244.551 678.892,238.012L678.892,214.316Z" style="fill:white;stroke:black;stroke-width:1.66px;"/>
    </g>
    <g transform="matrix(5.70996,0,0,4.33332,-604.138,-1308.08)">
        <ellipse cx="151.31" cy="447.482" rx="12.418" ry="13.846" style="fill:white;stroke:black;stroke-width:0.66px;"/>
    </g>
    <g transform="matrix(0.956108,0,0,2.53204,-153.274,58.3501)">
        <path d="M678.892,214.316C678.892,207.777 664.833,202.468 647.515,202.468L553.384,202.468C536.066,202.468 522.006,207.777 522.006,214.316L522.006,238.012C522.006,244.551 536.066,249.86 553.384,249.86L647.515,249.86C664.833,249.86 678.892,244.551 678.892,238.012L678.892,214.316Z" style="fill:white;stroke:black;stroke-width:1.66px;"/>
    </g>
    <g transform="matrix(5.70996,0,0,4.33332,-443.155,-1308.08)">
        <ellipse cx="151.31" cy="447.482" rx="12.418" ry="13.846" style="fill:white;stroke:black;stroke-width:0.66px;"/>
    </g>
    <g transform="matrix(0.956108,0,0,2.53204,-475.094,58.3501)">
        <path d="M678.892,214.316C678.892,207.777 664.833,202.468 647.515,202.468L553.384,202.468C536.066,202.468 522.006,207.777 522.006,214.316L522.006,238.012C522.006,244.551 536.066,249.86 553.384,249.86L647.515,249.86C664.833,249.86 678.892,244.551 678.892,238.012L678.892,214.316Z" style="fill:white;stroke:black;stroke-width:1.66px;"/>
    </g>
    <g transform="matrix(5.70996,0,0,4.33332,-764.975,-1308.08)">
        <ellipse cx="151.31" cy="447.482" rx="12.418" ry="13.846" style="fill:white;stroke:black;stroke-width:0.66px;"/>
    </g>
</svg>
