<?xml version="1.0" encoding="UTF-8" standalone="no"?><!DOCTYPE svg PUBLIC "-//W3C//DTD SVG 1.1//EN" "http://www.w3.org/Graphics/SVG/1.1/DTD/svg11.dtd"><svg width="100%" height="100%" viewBox="0 0 520 733" version="1.1" xmlns="http://www.w3.org/2000/svg" xmlns:xlink="http://www.w3.org/1999/xlink" xml:space="preserve" xmlns:serif="http://www.serif.com/" style="fill-rule:evenodd;clip-rule:evenodd;stroke-linecap:round;stroke-linejoin:round;stroke-miterlimit:1.5;"><path d="M24.584,0c-13.568,0 -24.584,11.016 -24.584,24.584l0,683.115c0,13.569 11.016,24.584 24.584,24.584l470.517,0c13.568,0 24.584,-11.015 24.584,-24.584l0,-683.115c0,-13.568 -11.016,-24.584 -24.584,-24.584l-470.517,0Z"/><path d="M41.278,18.438c-12.606,0 -22.84,10.234 -22.84,22.84l0,649.727c0,12.606 10.234,22.84 22.84,22.84l437.129,0c12.606,0 22.84,-10.234 22.84,-22.84l0,-649.727c0,-12.606 -10.234,-22.84 -22.84,-22.84l-437.129,0Z" style="fill:#fff;"/><path d="M460.51,531.304c20.337,-63.028 31.043,-134.525 31.043,-207.303c0,-72.779 -10.706,-144.275 -31.043,-207.303l-401.335,0c-20.337,63.028 -31.043,134.524 -31.043,207.303c0,72.778 10.706,144.275 31.043,207.303l401.335,0Z"/><path d="M423.678,559.005c43.453,-62.327 67.865,-146.86 67.865,-235.004c0,-88.144 -24.412,-172.678 -67.865,-235.005l-327.681,0c-43.453,62.327 -67.865,146.861 -67.865,235.005c0,88.144 24.412,172.677 67.865,235.004l327.681,0Z" style="fill:#fff;stroke:#000;stroke-width:3.17px;"/><path d="M484.843,63.778c0,-12.418 -10.082,-22.5 -22.5,-22.5l-405,0c-12.419,0 -22.5,10.082 -22.5,22.5l0,45c0,12.418 10.081,22.5 22.5,22.5l405,0c12.418,0 22.5,-10.082 22.5,-22.5l0,-45Z" style="fill:#fff;stroke:#000;stroke-width:3.17px;"/><path d="M484.838,564.304c0,-18.213 -14.787,-33 -33,-33l-384,0c-18.214,0 -33,14.787 -33,33l0,66c0,18.213 14.786,33 33,33l384,0c18.213,0 33,-14.787 33,-33l0,-66Z" style="fill:#fff;stroke:#000;stroke-width:3.17px;"/><path d="M334.838,601.005c0,-16.557 -13.443,-30 -30,-30l-90,0c-16.558,0 -30,13.443 -30,30l0,60c0,16.558 13.442,30 30,30l90,0c16.557,0 30,-13.442 30,-30l0,-60Z" style="fill:#fff;stroke:#000;stroke-width:3.17px;"/><ellipse cx="259.838" cy="631.005" rx="70.909" ry="60" style="fill:#fff;stroke:#000;stroke-width:3.33px;"/><path d="M495.82,601.005c0,-16.557 -13.442,-30 -30,-30l-90,0c-16.557,0 -30,13.443 -30,30l0,60c0,16.558 13.443,30 30,30l90,0c16.558,0 30,-13.442 30,-30l0,-60Z" style="fill:#fff;stroke:#000;stroke-width:3.17px;"/><ellipse cx="420.82" cy="631.005" rx="70.909" ry="60" style="fill:#fff;stroke:#000;stroke-width:3.33px;"/><path d="M174,601.005c0,-16.557 -13.443,-30 -30,-30l-90,0c-16.557,0 -30,13.443 -30,30l0,60c0,16.558 13.443,30 30,30l90,0c16.557,0 30,-13.442 30,-30l0,-60Z" style="fill:#fff;stroke:#000;stroke-width:3.17px;"/><ellipse cx="99" cy="631.005" rx="70.909" ry="60" style="fill:#fff;stroke:#000;stroke-width:3.33px;"/></svg>